<mxfile host="Electron" modified="2024-03-30T00:44:34.835Z" agent="Mozilla/5.0 (Windows NT 10.0; Win64; x64) AppleWebKit/537.36 (KHTML, like Gecko) draw.io/24.0.4 Chrome/120.0.6099.109 Electron/28.1.0 Safari/537.36" etag="oTeEEqXPNcLPZmU9jgIq" version="24.0.4" type="device">
  <diagram id="R2lEEEUBdFMjLlhIrx00" name="Page-1">
    <mxGraphModel dx="2074" dy="1196" grid="1" gridSize="10" guides="1" tooltips="1" connect="1" arrows="1" fold="1" page="1" pageScale="1" pageWidth="1700" pageHeight="1100" math="0" shadow="0" extFonts="Permanent Marker^https://fonts.googleapis.com/css?family=Permanent+Marker">
      <root>
        <mxCell id="0" />
        <mxCell id="1" parent="0" />
        <mxCell id="po9PtzL4gyYbx_RmuDyr-1" value="&lt;div style=&quot;border-bottom: 5px dotted white&lt;br/&gt;&quot;&gt;Menu&lt;/div&gt;" style="rounded=0;whiteSpace=wrap;html=1;" parent="1" vertex="1">
          <mxGeometry x="240" y="430" width="90" height="40" as="geometry" />
        </mxCell>
        <UserObject label="&lt;u&gt;foodId&lt;/u&gt;" id="po9PtzL4gyYbx_RmuDyr-2">
          <mxCell style="ellipse;whiteSpace=wrap;html=1;" parent="1" vertex="1">
            <mxGeometry x="80" y="400" width="70" height="40" as="geometry" />
          </mxCell>
        </UserObject>
        <mxCell id="po9PtzL4gyYbx_RmuDyr-4" value="" style="endArrow=none;html=1;rounded=0;entryX=0;entryY=0.5;entryDx=0;entryDy=0;exitX=1;exitY=0.5;exitDx=0;exitDy=0;" parent="1" source="po9PtzL4gyYbx_RmuDyr-2" target="po9PtzL4gyYbx_RmuDyr-1" edge="1">
          <mxGeometry relative="1" as="geometry">
            <mxPoint x="150" y="410" as="sourcePoint" />
            <mxPoint x="310" y="410" as="targetPoint" />
          </mxGeometry>
        </mxCell>
        <UserObject label="foodName" id="po9PtzL4gyYbx_RmuDyr-5">
          <mxCell style="ellipse;whiteSpace=wrap;html=1;" parent="1" vertex="1">
            <mxGeometry x="80" y="460" width="70" height="40" as="geometry" />
          </mxCell>
        </UserObject>
        <mxCell id="po9PtzL4gyYbx_RmuDyr-6" value="" style="endArrow=none;html=1;rounded=0;exitX=1;exitY=0.5;exitDx=0;exitDy=0;entryX=0;entryY=0.5;entryDx=0;entryDy=0;" parent="1" source="po9PtzL4gyYbx_RmuDyr-5" target="po9PtzL4gyYbx_RmuDyr-1" edge="1">
          <mxGeometry relative="1" as="geometry">
            <mxPoint x="150" y="510" as="sourcePoint" />
            <mxPoint x="190" y="470" as="targetPoint" />
          </mxGeometry>
        </mxCell>
        <UserObject label="foodSeason" id="po9PtzL4gyYbx_RmuDyr-7">
          <mxCell style="ellipse;whiteSpace=wrap;html=1;" parent="1" vertex="1">
            <mxGeometry x="80" y="520" width="70" height="40" as="geometry" />
          </mxCell>
        </UserObject>
        <mxCell id="po9PtzL4gyYbx_RmuDyr-14" value="" style="endArrow=none;html=1;rounded=0;fontFamily=Helvetica;fontSize=12;fontColor=default;labelBackgroundColor=default;exitX=1;exitY=0.5;exitDx=0;exitDy=0;entryX=0;entryY=0.5;entryDx=0;entryDy=0;" parent="1" source="po9PtzL4gyYbx_RmuDyr-7" target="po9PtzL4gyYbx_RmuDyr-1" edge="1">
          <mxGeometry relative="1" as="geometry">
            <mxPoint x="300" y="620" as="sourcePoint" />
            <mxPoint x="460" y="620" as="targetPoint" />
          </mxGeometry>
        </mxCell>
        <UserObject label="f_Category" id="po9PtzL4gyYbx_RmuDyr-26">
          <mxCell style="ellipse;whiteSpace=wrap;html=1;" parent="1" vertex="1">
            <mxGeometry x="80" y="340" width="70" height="40" as="geometry" />
          </mxCell>
        </UserObject>
        <mxCell id="po9PtzL4gyYbx_RmuDyr-27" value="" style="endArrow=none;html=1;rounded=0;entryX=0;entryY=0.5;entryDx=0;entryDy=0;exitX=1;exitY=0.5;exitDx=0;exitDy=0;" parent="1" source="po9PtzL4gyYbx_RmuDyr-26" target="po9PtzL4gyYbx_RmuDyr-1" edge="1">
          <mxGeometry relative="1" as="geometry">
            <mxPoint x="210" y="400" as="sourcePoint" />
            <mxPoint x="250" y="470" as="targetPoint" />
          </mxGeometry>
        </mxCell>
        <UserObject label="f_Description" id="po9PtzL4gyYbx_RmuDyr-28">
          <mxCell style="ellipse;whiteSpace=wrap;html=1;" parent="1" vertex="1">
            <mxGeometry x="80" y="580" width="70" height="40" as="geometry" />
          </mxCell>
        </UserObject>
        <mxCell id="po9PtzL4gyYbx_RmuDyr-29" value="" style="endArrow=none;html=1;rounded=0;entryX=1;entryY=0.5;entryDx=0;entryDy=0;exitX=0;exitY=0.5;exitDx=0;exitDy=0;" parent="1" source="po9PtzL4gyYbx_RmuDyr-1" target="po9PtzL4gyYbx_RmuDyr-28" edge="1">
          <mxGeometry relative="1" as="geometry">
            <mxPoint x="290" y="550" as="sourcePoint" />
            <mxPoint x="320" y="630" as="targetPoint" />
          </mxGeometry>
        </mxCell>
        <UserObject label="f_Price" id="po9PtzL4gyYbx_RmuDyr-30">
          <mxCell style="ellipse;whiteSpace=wrap;html=1;" parent="1" vertex="1">
            <mxGeometry x="80" y="280" width="70" height="40" as="geometry" />
          </mxCell>
        </UserObject>
        <mxCell id="po9PtzL4gyYbx_RmuDyr-31" value="" style="endArrow=none;html=1;rounded=0;entryX=0;entryY=0.5;entryDx=0;entryDy=0;exitX=1;exitY=0.5;exitDx=0;exitDy=0;" parent="1" source="po9PtzL4gyYbx_RmuDyr-30" target="po9PtzL4gyYbx_RmuDyr-1" edge="1">
          <mxGeometry relative="1" as="geometry">
            <mxPoint x="215" y="390" as="sourcePoint" />
            <mxPoint x="245" y="470" as="targetPoint" />
          </mxGeometry>
        </mxCell>
        <mxCell id="po9PtzL4gyYbx_RmuDyr-44" value="&lt;div style=&quot;border-bottom: 5px dotted white&lt;br/&gt;&quot;&gt;Free_items&lt;/div&gt;" style="rounded=0;whiteSpace=wrap;html=1;" parent="1" vertex="1">
          <mxGeometry x="205" y="815" width="90" height="40" as="geometry" />
        </mxCell>
        <UserObject label="foodId" id="po9PtzL4gyYbx_RmuDyr-45">
          <mxCell style="ellipse;whiteSpace=wrap;html=1;" parent="1" vertex="1">
            <mxGeometry x="260" y="885" width="70" height="40" as="geometry" />
          </mxCell>
        </UserObject>
        <UserObject label="&lt;u&gt;free_Fid&lt;/u&gt;" id="po9PtzL4gyYbx_RmuDyr-46">
          <mxCell style="ellipse;whiteSpace=wrap;html=1;" parent="1" vertex="1">
            <mxGeometry x="160" y="885" width="70" height="40" as="geometry" />
          </mxCell>
        </UserObject>
        <mxCell id="po9PtzL4gyYbx_RmuDyr-47" value="" style="endArrow=none;html=1;rounded=0;strokeColor=default;align=center;verticalAlign=middle;fontFamily=Helvetica;fontSize=12;fontColor=default;labelBackgroundColor=default;endSize=3.668421052631579;fillColor=#000000;exitX=0.5;exitY=0;exitDx=0;exitDy=0;entryX=0.5;entryY=1;entryDx=0;entryDy=0;" parent="1" source="po9PtzL4gyYbx_RmuDyr-46" target="po9PtzL4gyYbx_RmuDyr-44" edge="1">
          <mxGeometry width="50" height="50" relative="1" as="geometry">
            <mxPoint x="150" y="865" as="sourcePoint" />
            <mxPoint x="200" y="815" as="targetPoint" />
          </mxGeometry>
        </mxCell>
        <mxCell id="po9PtzL4gyYbx_RmuDyr-48" value="" style="endArrow=none;html=1;rounded=0;strokeColor=default;align=center;verticalAlign=middle;fontFamily=Helvetica;fontSize=12;fontColor=default;labelBackgroundColor=default;endSize=3.668421052631579;fillColor=#000000;exitX=0.5;exitY=1;exitDx=0;exitDy=0;entryX=0.5;entryY=0;entryDx=0;entryDy=0;" parent="1" source="po9PtzL4gyYbx_RmuDyr-44" target="po9PtzL4gyYbx_RmuDyr-45" edge="1">
          <mxGeometry width="50" height="50" relative="1" as="geometry">
            <mxPoint x="310" y="865" as="sourcePoint" />
            <mxPoint x="540" y="665" as="targetPoint" />
          </mxGeometry>
        </mxCell>
        <mxCell id="po9PtzL4gyYbx_RmuDyr-50" value="" style="endArrow=none;dashed=1;html=1;rounded=0;strokeColor=default;align=center;verticalAlign=middle;fontFamily=Helvetica;fontSize=12;fontColor=default;labelBackgroundColor=default;endSize=3.668421052631579;fillColor=#000000;" parent="1" edge="1">
          <mxGeometry width="50" height="50" relative="1" as="geometry">
            <mxPoint x="280" y="910" as="sourcePoint" />
            <mxPoint x="310" y="910" as="targetPoint" />
          </mxGeometry>
        </mxCell>
        <mxCell id="po9PtzL4gyYbx_RmuDyr-69" value="&lt;div style=&quot;border-bottom: 5px dotted white&lt;br/&gt;&quot;&gt;Dine_inOrder&lt;/div&gt;" style="rounded=0;whiteSpace=wrap;html=1;" parent="1" vertex="1">
          <mxGeometry x="545" y="541.88" width="90" height="40" as="geometry" />
        </mxCell>
        <mxCell id="po9PtzL4gyYbx_RmuDyr-70" value="&lt;div style=&quot;border-bottom: 5px dotted white&lt;br/&gt;&quot;&gt;TakeoutOrder&lt;/div&gt;" style="rounded=0;whiteSpace=wrap;html=1;" parent="1" vertex="1">
          <mxGeometry x="750" y="596.87" width="90" height="40" as="geometry" />
        </mxCell>
        <mxCell id="po9PtzL4gyYbx_RmuDyr-71" value="&lt;div style=&quot;border-bottom: 5px dotted white&lt;br/&gt;&quot;&gt;DeliveredOrder&lt;/div&gt;" style="rounded=0;whiteSpace=wrap;html=1;" parent="1" vertex="1">
          <mxGeometry x="950" y="775" width="90" height="40" as="geometry" />
        </mxCell>
        <mxCell id="po9PtzL4gyYbx_RmuDyr-73" value="" style="endArrow=none;html=1;rounded=0;strokeColor=default;align=center;verticalAlign=middle;fontFamily=Helvetica;fontSize=12;fontColor=default;labelBackgroundColor=default;endSize=3.668421052631579;fillColor=#000000;entryX=0;entryY=0.5;entryDx=0;entryDy=0;exitX=0.5;exitY=0;exitDx=0;exitDy=0;" parent="1" source="po9PtzL4gyYbx_RmuDyr-70" target="po9PtzL4gyYbx_RmuDyr-61" edge="1">
          <mxGeometry width="50" height="50" relative="1" as="geometry">
            <mxPoint x="647.5" y="546.88" as="sourcePoint" />
            <mxPoint x="697.5" y="496.88" as="targetPoint" />
          </mxGeometry>
        </mxCell>
        <mxCell id="po9PtzL4gyYbx_RmuDyr-74" value="" style="endArrow=none;html=1;rounded=0;strokeColor=default;align=center;verticalAlign=middle;fontFamily=Helvetica;fontSize=12;fontColor=default;labelBackgroundColor=default;endSize=3.668421052631579;fillColor=#000000;entryX=0;entryY=0.5;entryDx=0;entryDy=0;exitX=0.5;exitY=0;exitDx=0;exitDy=0;" parent="1" source="po9PtzL4gyYbx_RmuDyr-69" target="po9PtzL4gyYbx_RmuDyr-61" edge="1">
          <mxGeometry width="50" height="50" relative="1" as="geometry">
            <mxPoint x="760" y="410" as="sourcePoint" />
            <mxPoint x="810" y="360" as="targetPoint" />
          </mxGeometry>
        </mxCell>
        <mxCell id="po9PtzL4gyYbx_RmuDyr-75" value="" style="endArrow=none;html=1;rounded=0;strokeColor=default;align=center;verticalAlign=middle;fontFamily=Helvetica;fontSize=12;fontColor=default;labelBackgroundColor=default;endSize=3.668421052631579;fillColor=#000000;entryX=0;entryY=0.5;entryDx=0;entryDy=0;exitX=0.5;exitY=0;exitDx=0;exitDy=0;" parent="1" source="po9PtzL4gyYbx_RmuDyr-71" target="po9PtzL4gyYbx_RmuDyr-61" edge="1">
          <mxGeometry width="50" height="50" relative="1" as="geometry">
            <mxPoint x="760" y="505" as="sourcePoint" />
            <mxPoint x="810" y="455" as="targetPoint" />
          </mxGeometry>
        </mxCell>
        <mxCell id="po9PtzL4gyYbx_RmuDyr-79" value="consist" style="shape=rhombus;perimeter=rhombusPerimeter;whiteSpace=wrap;html=1;align=center;dashed=0;strokeColor=default;strokeWidth=1;verticalAlign=middle;spacingLeft=6;spacingTop=0;fontFamily=Helvetica;fontSize=12;fontColor=default;labelBackgroundColor=default;fillColor=default;" parent="1" vertex="1">
          <mxGeometry x="687.5" y="261.88" width="120" height="60" as="geometry" />
        </mxCell>
        <mxCell id="po9PtzL4gyYbx_RmuDyr-80" value="" style="endArrow=none;html=1;rounded=0;strokeColor=default;align=center;verticalAlign=middle;fontFamily=Helvetica;fontSize=12;fontColor=default;labelBackgroundColor=default;endSize=3.668421052631579;fillColor=#000000;entryX=0;entryY=0.5;entryDx=0;entryDy=0;exitX=1;exitY=0.5;exitDx=0;exitDy=0;" parent="1" source="po9PtzL4gyYbx_RmuDyr-79" target="po9PtzL4gyYbx_RmuDyr-60" edge="1">
          <mxGeometry width="50" height="50" relative="1" as="geometry">
            <mxPoint x="757.5" y="366.88" as="sourcePoint" />
            <mxPoint x="787.5" y="296.88" as="targetPoint" />
          </mxGeometry>
        </mxCell>
        <mxCell id="po9PtzL4gyYbx_RmuDyr-92" value="order" style="shape=rhombus;perimeter=rhombusPerimeter;whiteSpace=wrap;html=1;align=center;dashed=0;strokeColor=default;strokeWidth=1;verticalAlign=middle;spacingLeft=6;spacingTop=0;fontFamily=Helvetica;fontSize=12;fontColor=default;labelBackgroundColor=default;fillColor=default;" parent="1" vertex="1">
          <mxGeometry x="350" y="390" width="70" height="39" as="geometry" />
        </mxCell>
        <mxCell id="po9PtzL4gyYbx_RmuDyr-93" value="" style="shape=flexArrow;endArrow=classic;html=1;rounded=0;strokeColor=default;align=center;verticalAlign=middle;fontFamily=Helvetica;fontSize=12;fontColor=default;labelBackgroundColor=default;endSize=3.2526315789473683;fillColor=#000000;entryX=1;entryY=0.5;entryDx=0;entryDy=0;exitX=0.5;exitY=1;exitDx=0;exitDy=0;endWidth=0.9695290858725762;width=3.1578947368421053;" parent="1" source="po9PtzL4gyYbx_RmuDyr-76" target="po9PtzL4gyYbx_RmuDyr-92" edge="1">
          <mxGeometry width="50" height="50" relative="1" as="geometry">
            <mxPoint x="360" y="380" as="sourcePoint" />
            <mxPoint x="410" y="330" as="targetPoint" />
          </mxGeometry>
        </mxCell>
        <mxCell id="po9PtzL4gyYbx_RmuDyr-94" value="" style="endArrow=none;html=1;rounded=0;strokeColor=default;align=center;verticalAlign=middle;fontFamily=Helvetica;fontSize=12;fontColor=default;labelBackgroundColor=default;endSize=3.668421052631579;fillColor=#000000;entryX=0;entryY=0.5;entryDx=0;entryDy=0;exitX=1;exitY=0.5;exitDx=0;exitDy=0;" parent="1" source="po9PtzL4gyYbx_RmuDyr-1" target="po9PtzL4gyYbx_RmuDyr-92" edge="1">
          <mxGeometry width="50" height="50" relative="1" as="geometry">
            <mxPoint x="350" y="480" as="sourcePoint" />
            <mxPoint x="400" y="430" as="targetPoint" />
          </mxGeometry>
        </mxCell>
        <mxCell id="po9PtzL4gyYbx_RmuDyr-98" value="startTime" style="ellipse;whiteSpace=wrap;html=1;align=center;dashed=0;strokeColor=default;strokeWidth=1;verticalAlign=middle;spacingLeft=6;spacingTop=0;fontFamily=Helvetica;fontSize=12;fontColor=default;labelBackgroundColor=default;fillColor=default;" parent="1" vertex="1">
          <mxGeometry x="405" y="596.87" width="80" height="40" as="geometry" />
        </mxCell>
        <mxCell id="po9PtzL4gyYbx_RmuDyr-99" value="endTime" style="ellipse;whiteSpace=wrap;html=1;align=center;dashed=0;strokeColor=default;strokeWidth=1;verticalAlign=middle;spacingLeft=6;spacingTop=0;fontFamily=Helvetica;fontSize=12;fontColor=default;labelBackgroundColor=default;fillColor=default;" parent="1" vertex="1">
          <mxGeometry x="475" y="641.88" width="80" height="40" as="geometry" />
        </mxCell>
        <mxCell id="po9PtzL4gyYbx_RmuDyr-101" value="" style="endArrow=none;html=1;rounded=0;strokeColor=default;align=center;verticalAlign=middle;fontFamily=Helvetica;fontSize=12;fontColor=default;labelBackgroundColor=default;endSize=3.668421052631579;fillColor=#000000;exitX=0.781;exitY=0.025;exitDx=0;exitDy=0;exitPerimeter=0;" parent="1" source="po9PtzL4gyYbx_RmuDyr-98" edge="1">
          <mxGeometry width="50" height="50" relative="1" as="geometry">
            <mxPoint x="535" y="691.88" as="sourcePoint" />
            <mxPoint x="545" y="561.88" as="targetPoint" />
          </mxGeometry>
        </mxCell>
        <mxCell id="po9PtzL4gyYbx_RmuDyr-102" value="" style="endArrow=none;html=1;rounded=0;strokeColor=default;align=center;verticalAlign=middle;fontFamily=Helvetica;fontSize=12;fontColor=default;labelBackgroundColor=default;endSize=3.668421052631579;fillColor=#000000;entryX=0;entryY=1;entryDx=0;entryDy=0;exitX=0.5;exitY=0;exitDx=0;exitDy=0;" parent="1" source="po9PtzL4gyYbx_RmuDyr-99" target="po9PtzL4gyYbx_RmuDyr-69" edge="1">
          <mxGeometry width="50" height="50" relative="1" as="geometry">
            <mxPoint x="615" y="691.88" as="sourcePoint" />
            <mxPoint x="590" y="631.88" as="targetPoint" />
          </mxGeometry>
        </mxCell>
        <mxCell id="po9PtzL4gyYbx_RmuDyr-104" value="gNum" style="ellipse;whiteSpace=wrap;html=1;align=center;dashed=0;strokeColor=default;strokeWidth=1;verticalAlign=middle;spacingLeft=6;spacingTop=0;fontFamily=Helvetica;fontSize=12;fontColor=default;labelBackgroundColor=default;fillColor=default;" parent="1" vertex="1">
          <mxGeometry x="670" y="540" width="80" height="40" as="geometry" />
        </mxCell>
        <mxCell id="po9PtzL4gyYbx_RmuDyr-105" value="" style="endArrow=none;html=1;rounded=0;strokeColor=default;align=center;verticalAlign=middle;fontFamily=Helvetica;fontSize=12;fontColor=default;labelBackgroundColor=default;endSize=3.668421052631579;fillColor=#000000;entryX=1;entryY=0.5;entryDx=0;entryDy=0;exitX=0;exitY=0.5;exitDx=0;exitDy=0;" parent="1" source="po9PtzL4gyYbx_RmuDyr-104" target="po9PtzL4gyYbx_RmuDyr-69" edge="1">
          <mxGeometry width="50" height="50" relative="1" as="geometry">
            <mxPoint x="635" y="821.88" as="sourcePoint" />
            <mxPoint x="590" y="631.88" as="targetPoint" />
          </mxGeometry>
        </mxCell>
        <mxCell id="po9PtzL4gyYbx_RmuDyr-106" value="state" style="ellipse;whiteSpace=wrap;html=1;align=center;dashed=0;strokeColor=default;strokeWidth=1;verticalAlign=middle;spacingLeft=6;spacingTop=0;fontFamily=Helvetica;fontSize=12;fontColor=default;labelBackgroundColor=default;fillColor=default;" parent="1" vertex="1">
          <mxGeometry x="450" y="490" width="80" height="40" as="geometry" />
        </mxCell>
        <mxCell id="po9PtzL4gyYbx_RmuDyr-107" value="" style="endArrow=none;html=1;rounded=0;strokeColor=default;align=center;verticalAlign=middle;fontFamily=Helvetica;fontSize=12;fontColor=default;labelBackgroundColor=default;endSize=3.668421052631579;fillColor=#000000;entryX=0;entryY=0.5;entryDx=0;entryDy=0;exitX=1;exitY=1;exitDx=0;exitDy=0;" parent="1" source="po9PtzL4gyYbx_RmuDyr-106" target="po9PtzL4gyYbx_RmuDyr-69" edge="1">
          <mxGeometry width="50" height="50" relative="1" as="geometry">
            <mxPoint x="365" y="581.88" as="sourcePoint" />
            <mxPoint x="415" y="531.88" as="targetPoint" />
          </mxGeometry>
        </mxCell>
        <mxCell id="po9PtzL4gyYbx_RmuDyr-112" value="Table" style="whiteSpace=wrap;html=1;align=center;dashed=0;strokeColor=default;strokeWidth=1;verticalAlign=middle;spacingLeft=6;spacingTop=0;fontFamily=Helvetica;fontSize=12;fontColor=default;labelBackgroundColor=default;fillColor=default;" parent="1" vertex="1">
          <mxGeometry x="575" y="735" width="100" height="40" as="geometry" />
        </mxCell>
        <mxCell id="po9PtzL4gyYbx_RmuDyr-113" value="&lt;u&gt;tableId&lt;/u&gt;" style="ellipse;whiteSpace=wrap;html=1;align=center;dashed=0;strokeColor=default;strokeWidth=1;verticalAlign=middle;spacingLeft=6;spacingTop=0;fontFamily=Helvetica;fontSize=12;fontColor=default;labelBackgroundColor=default;fillColor=default;" parent="1" vertex="1">
          <mxGeometry x="465" y="775" width="80" height="40" as="geometry" />
        </mxCell>
        <mxCell id="po9PtzL4gyYbx_RmuDyr-114" value="tableLocation" style="ellipse;whiteSpace=wrap;html=1;align=center;dashed=0;strokeColor=default;strokeWidth=1;verticalAlign=middle;spacingLeft=6;spacingTop=0;fontFamily=Helvetica;fontSize=12;fontColor=default;labelBackgroundColor=default;fillColor=default;" parent="1" vertex="1">
          <mxGeometry x="465" y="725" width="80" height="40" as="geometry" />
        </mxCell>
        <mxCell id="po9PtzL4gyYbx_RmuDyr-115" value="allocate" style="shape=rhombus;perimeter=rhombusPerimeter;whiteSpace=wrap;html=1;align=center;dashed=0;strokeColor=default;strokeWidth=1;verticalAlign=middle;spacingLeft=6;spacingTop=0;fontFamily=Helvetica;fontSize=12;fontColor=default;labelBackgroundColor=default;fillColor=default;" parent="1" vertex="1">
          <mxGeometry x="575" y="626.87" width="90" height="50" as="geometry" />
        </mxCell>
        <mxCell id="po9PtzL4gyYbx_RmuDyr-116" style="edgeStyle=none;rounded=0;orthogonalLoop=1;jettySize=auto;html=1;exitX=1;exitY=0.5;exitDx=0;exitDy=0;strokeColor=default;align=center;verticalAlign=middle;fontFamily=Helvetica;fontSize=12;fontColor=default;labelBackgroundColor=default;endArrow=classic;endSize=3.668421052631579;fillColor=#000000;" parent="1" edge="1">
          <mxGeometry relative="1" as="geometry">
            <mxPoint x="610" y="651.88" as="sourcePoint" />
            <mxPoint x="610" y="651.88" as="targetPoint" />
          </mxGeometry>
        </mxCell>
        <mxCell id="po9PtzL4gyYbx_RmuDyr-118" value="" style="endArrow=none;html=1;rounded=0;strokeColor=default;align=center;verticalAlign=middle;fontFamily=Helvetica;fontSize=12;fontColor=default;labelBackgroundColor=default;endSize=3.668421052631579;fillColor=#000000;entryX=0.5;entryY=0;entryDx=0;entryDy=0;exitX=0.5;exitY=1;exitDx=0;exitDy=0;" parent="1" source="po9PtzL4gyYbx_RmuDyr-115" target="po9PtzL4gyYbx_RmuDyr-112" edge="1">
          <mxGeometry width="50" height="50" relative="1" as="geometry">
            <mxPoint x="545" y="640" as="sourcePoint" />
            <mxPoint x="475" y="675" as="targetPoint" />
          </mxGeometry>
        </mxCell>
        <mxCell id="po9PtzL4gyYbx_RmuDyr-119" value="" style="endArrow=none;html=1;rounded=0;strokeColor=default;align=center;verticalAlign=middle;fontFamily=Helvetica;fontSize=12;fontColor=default;labelBackgroundColor=default;endSize=3.668421052631579;fillColor=#000000;entryX=0;entryY=0.25;entryDx=0;entryDy=0;exitX=1;exitY=0.5;exitDx=0;exitDy=0;" parent="1" source="po9PtzL4gyYbx_RmuDyr-114" target="po9PtzL4gyYbx_RmuDyr-112" edge="1">
          <mxGeometry width="50" height="50" relative="1" as="geometry">
            <mxPoint x="435" y="825" as="sourcePoint" />
            <mxPoint x="485" y="775" as="targetPoint" />
          </mxGeometry>
        </mxCell>
        <mxCell id="po9PtzL4gyYbx_RmuDyr-120" value="" style="endArrow=none;html=1;rounded=0;strokeColor=default;align=center;verticalAlign=middle;fontFamily=Helvetica;fontSize=12;fontColor=default;labelBackgroundColor=default;endSize=3.668421052631579;fillColor=#000000;entryX=0;entryY=0.5;entryDx=0;entryDy=0;exitX=1;exitY=0.5;exitDx=0;exitDy=0;" parent="1" source="po9PtzL4gyYbx_RmuDyr-113" target="po9PtzL4gyYbx_RmuDyr-112" edge="1">
          <mxGeometry width="50" height="50" relative="1" as="geometry">
            <mxPoint x="495" y="835" as="sourcePoint" />
            <mxPoint x="545" y="785" as="targetPoint" />
          </mxGeometry>
        </mxCell>
        <mxCell id="po9PtzL4gyYbx_RmuDyr-121" value="reservationDetail" style="shape=ext;double=1;rounded=0;whiteSpace=wrap;html=1;dashed=0;strokeColor=default;strokeWidth=1;align=left;verticalAlign=middle;spacingLeft=6;spacingTop=0;fontFamily=Helvetica;fontSize=12;fontColor=default;labelBackgroundColor=default;fillColor=default;" parent="1" vertex="1">
          <mxGeometry x="575" y="885" width="100" height="40" as="geometry" />
        </mxCell>
        <mxCell id="po9PtzL4gyYbx_RmuDyr-122" value="booked" style="shape=rhombus;double=1;perimeter=rhombusPerimeter;whiteSpace=wrap;html=1;align=center;dashed=0;strokeColor=default;strokeWidth=1;verticalAlign=middle;spacingLeft=6;spacingTop=0;fontFamily=Helvetica;fontSize=12;fontColor=default;labelBackgroundColor=default;fillColor=default;" parent="1" vertex="1">
          <mxGeometry x="585" y="815" width="80" height="40" as="geometry" />
        </mxCell>
        <mxCell id="po9PtzL4gyYbx_RmuDyr-124" value="" style="endArrow=none;html=1;rounded=0;strokeColor=default;align=center;verticalAlign=middle;fontFamily=Helvetica;fontSize=12;fontColor=default;labelBackgroundColor=default;endSize=3.668421052631579;fillColor=#000000;entryX=0.5;entryY=1;entryDx=0;entryDy=0;exitX=0.5;exitY=0;exitDx=0;exitDy=0;" parent="1" source="po9PtzL4gyYbx_RmuDyr-122" target="po9PtzL4gyYbx_RmuDyr-112" edge="1">
          <mxGeometry width="50" height="50" relative="1" as="geometry">
            <mxPoint x="575" y="835" as="sourcePoint" />
            <mxPoint x="625" y="785" as="targetPoint" />
          </mxGeometry>
        </mxCell>
        <mxCell id="po9PtzL4gyYbx_RmuDyr-125" value="capacity" style="ellipse;whiteSpace=wrap;html=1;align=center;dashed=0;strokeColor=default;strokeWidth=1;verticalAlign=middle;spacingLeft=6;spacingTop=0;fontFamily=Helvetica;fontSize=12;fontColor=default;labelBackgroundColor=default;fillColor=default;" parent="1" vertex="1">
          <mxGeometry x="465" y="825" width="80" height="40" as="geometry" />
        </mxCell>
        <mxCell id="po9PtzL4gyYbx_RmuDyr-126" value="" style="endArrow=none;html=1;rounded=0;strokeColor=default;align=center;verticalAlign=middle;fontFamily=Helvetica;fontSize=12;fontColor=default;labelBackgroundColor=default;endSize=3.668421052631579;fillColor=#000000;exitX=1;exitY=0.5;exitDx=0;exitDy=0;entryX=0;entryY=0.75;entryDx=0;entryDy=0;" parent="1" source="po9PtzL4gyYbx_RmuDyr-125" target="po9PtzL4gyYbx_RmuDyr-112" edge="1">
          <mxGeometry width="50" height="50" relative="1" as="geometry">
            <mxPoint x="555" y="835" as="sourcePoint" />
            <mxPoint x="605" y="785" as="targetPoint" />
          </mxGeometry>
        </mxCell>
        <mxCell id="po9PtzL4gyYbx_RmuDyr-127" value="r_startTime" style="ellipse;whiteSpace=wrap;html=1;align=center;dashed=0;strokeColor=default;strokeWidth=1;verticalAlign=middle;spacingLeft=6;spacingTop=0;fontFamily=Helvetica;fontSize=12;fontColor=default;labelBackgroundColor=default;fillColor=default;" parent="1" vertex="1">
          <mxGeometry x="547.5" y="975" width="75" height="40" as="geometry" />
        </mxCell>
        <mxCell id="po9PtzL4gyYbx_RmuDyr-128" value="r_endTime" style="ellipse;whiteSpace=wrap;html=1;align=center;dashed=0;strokeColor=default;strokeWidth=1;verticalAlign=middle;spacingLeft=6;spacingTop=0;fontFamily=Helvetica;fontSize=12;fontColor=default;labelBackgroundColor=default;fillColor=default;" parent="1" vertex="1">
          <mxGeometry x="635" y="975" width="75" height="40" as="geometry" />
        </mxCell>
        <mxCell id="po9PtzL4gyYbx_RmuDyr-129" value="" style="endArrow=none;html=1;rounded=0;strokeColor=default;align=center;verticalAlign=middle;fontFamily=Helvetica;fontSize=12;fontColor=default;labelBackgroundColor=default;endSize=3.668421052631579;fillColor=#000000;entryX=0.5;entryY=1;entryDx=0;entryDy=0;exitX=0.5;exitY=0;exitDx=0;exitDy=0;" parent="1" source="po9PtzL4gyYbx_RmuDyr-127" target="po9PtzL4gyYbx_RmuDyr-121" edge="1">
          <mxGeometry width="50" height="50" relative="1" as="geometry">
            <mxPoint x="525" y="1005" as="sourcePoint" />
            <mxPoint x="575" y="955" as="targetPoint" />
          </mxGeometry>
        </mxCell>
        <mxCell id="po9PtzL4gyYbx_RmuDyr-130" value="" style="endArrow=none;html=1;rounded=0;strokeColor=default;align=center;verticalAlign=middle;fontFamily=Helvetica;fontSize=12;fontColor=default;labelBackgroundColor=default;endSize=3.668421052631579;fillColor=#000000;entryX=0.5;entryY=1;entryDx=0;entryDy=0;exitX=0.549;exitY=0.025;exitDx=0;exitDy=0;exitPerimeter=0;" parent="1" source="po9PtzL4gyYbx_RmuDyr-128" target="po9PtzL4gyYbx_RmuDyr-121" edge="1">
          <mxGeometry width="50" height="50" relative="1" as="geometry">
            <mxPoint x="695" y="975" as="sourcePoint" />
            <mxPoint x="745" y="925" as="targetPoint" />
          </mxGeometry>
        </mxCell>
        <mxCell id="po9PtzL4gyYbx_RmuDyr-60" value="Order" style="whiteSpace=wrap;html=1;align=center;dashed=0;strokeColor=default;strokeWidth=1;verticalAlign=middle;spacingLeft=6;spacingTop=0;fontFamily=Helvetica;fontSize=12;fontColor=default;labelBackgroundColor=default;fillColor=default;" parent="1" vertex="1">
          <mxGeometry x="817.5" y="306.26" width="100" height="40" as="geometry" />
        </mxCell>
        <mxCell id="po9PtzL4gyYbx_RmuDyr-61" value="isA" style="triangle;whiteSpace=wrap;html=1;dashed=0;strokeColor=default;strokeWidth=1;align=left;verticalAlign=middle;spacingLeft=6;spacingTop=0;fontFamily=Helvetica;fontSize=12;fontColor=default;labelBackgroundColor=default;fillColor=default;rotation=-90;" parent="1" vertex="1">
          <mxGeometry x="850" y="376.26" width="35" height="47.5" as="geometry" />
        </mxCell>
        <mxCell id="po9PtzL4gyYbx_RmuDyr-62" value="" style="endArrow=none;html=1;rounded=0;strokeColor=default;align=center;verticalAlign=middle;fontFamily=Helvetica;fontSize=12;fontColor=default;labelBackgroundColor=default;endSize=3.668421052631579;fillColor=#000000;entryX=0.5;entryY=1;entryDx=0;entryDy=0;exitX=1;exitY=0.5;exitDx=0;exitDy=0;" parent="1" source="po9PtzL4gyYbx_RmuDyr-61" target="po9PtzL4gyYbx_RmuDyr-60" edge="1">
          <mxGeometry width="50" height="50" relative="1" as="geometry">
            <mxPoint x="797.5" y="416.26" as="sourcePoint" />
            <mxPoint x="847.5" y="366.26" as="targetPoint" />
          </mxGeometry>
        </mxCell>
        <UserObject label="&lt;u&gt;orderId&lt;/u&gt;" id="po9PtzL4gyYbx_RmuDyr-63">
          <mxCell style="ellipse;whiteSpace=wrap;html=1;" parent="1" vertex="1">
            <mxGeometry x="937.5" y="256.88" width="70" height="40" as="geometry" />
          </mxCell>
        </UserObject>
        <UserObject label="method" id="po9PtzL4gyYbx_RmuDyr-65">
          <mxCell style="ellipse;whiteSpace=wrap;html=1;" parent="1" vertex="1">
            <mxGeometry x="907.5" y="401.88" width="70" height="40" as="geometry" />
          </mxCell>
        </UserObject>
        <mxCell id="po9PtzL4gyYbx_RmuDyr-66" value="" style="endArrow=none;html=1;rounded=0;strokeColor=default;align=center;verticalAlign=middle;fontFamily=Helvetica;fontSize=12;fontColor=default;labelBackgroundColor=default;endSize=3.668421052631579;fillColor=#000000;entryX=0;entryY=0.5;entryDx=0;entryDy=0;exitX=0.75;exitY=0;exitDx=0;exitDy=0;" parent="1" source="po9PtzL4gyYbx_RmuDyr-60" target="po9PtzL4gyYbx_RmuDyr-63" edge="1">
          <mxGeometry width="50" height="50" relative="1" as="geometry">
            <mxPoint x="887.5" y="276.26" as="sourcePoint" />
            <mxPoint x="937.5" y="226.26" as="targetPoint" />
          </mxGeometry>
        </mxCell>
        <mxCell id="po9PtzL4gyYbx_RmuDyr-67" value="" style="endArrow=none;html=1;rounded=0;strokeColor=default;align=center;verticalAlign=middle;fontFamily=Helvetica;fontSize=12;fontColor=default;labelBackgroundColor=default;endSize=3.668421052631579;fillColor=#000000;entryX=0.5;entryY=0;entryDx=0;entryDy=0;exitX=0.75;exitY=1;exitDx=0;exitDy=0;" parent="1" source="po9PtzL4gyYbx_RmuDyr-60" target="po9PtzL4gyYbx_RmuDyr-65" edge="1">
          <mxGeometry width="50" height="50" relative="1" as="geometry">
            <mxPoint x="927.5" y="456.26" as="sourcePoint" />
            <mxPoint x="977.5" y="406.26" as="targetPoint" />
          </mxGeometry>
        </mxCell>
        <mxCell id="po9PtzL4gyYbx_RmuDyr-146" value="" style="group" parent="1" vertex="1" connectable="0">
          <mxGeometry x="350" y="150" width="280" height="170.62" as="geometry" />
        </mxCell>
        <mxCell id="po9PtzL4gyYbx_RmuDyr-76" value="OrderDetail" style="whiteSpace=wrap;html=1;align=center;dashed=0;strokeColor=default;strokeWidth=1;verticalAlign=middle;spacingLeft=6;spacingTop=0;fontFamily=Helvetica;fontSize=12;fontColor=default;labelBackgroundColor=default;fillColor=default;" parent="po9PtzL4gyYbx_RmuDyr-146" vertex="1">
          <mxGeometry x="105" y="130.62" width="100" height="40" as="geometry" />
        </mxCell>
        <mxCell id="po9PtzL4gyYbx_RmuDyr-81" value="&lt;u&gt;oDetial_Id&lt;/u&gt;" style="ellipse;whiteSpace=wrap;html=1;align=center;dashed=0;strokeColor=default;strokeWidth=1;verticalAlign=middle;spacingLeft=6;spacingTop=0;fontFamily=Helvetica;fontSize=12;fontColor=default;labelBackgroundColor=default;fillColor=default;" parent="po9PtzL4gyYbx_RmuDyr-146" vertex="1">
          <mxGeometry y="70.62" width="70" height="40" as="geometry" />
        </mxCell>
        <mxCell id="po9PtzL4gyYbx_RmuDyr-85" value="" style="endArrow=none;html=1;rounded=0;strokeColor=default;align=center;verticalAlign=middle;fontFamily=Helvetica;fontSize=12;fontColor=default;labelBackgroundColor=default;endSize=3.668421052631579;fillColor=#000000;entryX=0.5;entryY=1;entryDx=0;entryDy=0;exitX=0.5;exitY=0;exitDx=0;exitDy=0;" parent="po9PtzL4gyYbx_RmuDyr-146" source="po9PtzL4gyYbx_RmuDyr-76" target="po9PtzL4gyYbx_RmuDyr-81" edge="1">
          <mxGeometry width="50" height="50" relative="1" as="geometry">
            <mxPoint x="-5" y="160.62" as="sourcePoint" />
            <mxPoint x="45" y="110.62" as="targetPoint" />
          </mxGeometry>
        </mxCell>
        <mxCell id="po9PtzL4gyYbx_RmuDyr-88" value="foodId" style="ellipse;whiteSpace=wrap;html=1;align=center;dashed=0;strokeColor=default;strokeWidth=1;verticalAlign=middle;spacingLeft=6;spacingTop=0;fontFamily=Helvetica;fontSize=12;fontColor=default;labelBackgroundColor=default;fillColor=default;" parent="po9PtzL4gyYbx_RmuDyr-146" vertex="1">
          <mxGeometry x="130" width="70" height="40" as="geometry" />
        </mxCell>
        <mxCell id="po9PtzL4gyYbx_RmuDyr-91" value="" style="endArrow=none;html=1;rounded=0;strokeColor=default;align=center;verticalAlign=middle;fontFamily=Helvetica;fontSize=12;fontColor=default;labelBackgroundColor=default;endSize=3.668421052631579;fillColor=#000000;entryX=0.5;entryY=1;entryDx=0;entryDy=0;exitX=0.5;exitY=0;exitDx=0;exitDy=0;" parent="po9PtzL4gyYbx_RmuDyr-146" source="po9PtzL4gyYbx_RmuDyr-76" target="po9PtzL4gyYbx_RmuDyr-88" edge="1">
          <mxGeometry width="50" height="50" relative="1" as="geometry">
            <mxPoint x="175" y="110.62" as="sourcePoint" />
            <mxPoint x="225" y="60.620000000000005" as="targetPoint" />
          </mxGeometry>
        </mxCell>
        <mxCell id="po9PtzL4gyYbx_RmuDyr-142" value="foodQuantity" style="ellipse;whiteSpace=wrap;html=1;align=center;dashed=0;strokeColor=default;strokeWidth=1;verticalAlign=middle;spacingLeft=6;spacingTop=0;fontFamily=Helvetica;fontSize=12;fontColor=default;labelBackgroundColor=default;fillColor=default;" parent="po9PtzL4gyYbx_RmuDyr-146" vertex="1">
          <mxGeometry x="297.5" y="32.50000000000001" width="70" height="40" as="geometry" />
        </mxCell>
        <mxCell id="po9PtzL4gyYbx_RmuDyr-143" value="" style="endArrow=none;html=1;rounded=0;strokeColor=default;align=center;verticalAlign=middle;fontFamily=Helvetica;fontSize=12;fontColor=default;labelBackgroundColor=default;endSize=3.668421052631579;fillColor=#000000;entryX=0.5;entryY=1;entryDx=0;entryDy=0;exitX=0.5;exitY=0;exitDx=0;exitDy=0;" parent="po9PtzL4gyYbx_RmuDyr-146" source="po9PtzL4gyYbx_RmuDyr-76" target="po9PtzL4gyYbx_RmuDyr-142" edge="1">
          <mxGeometry width="50" height="50" relative="1" as="geometry">
            <mxPoint x="165" y="120.62" as="sourcePoint" />
            <mxPoint x="215" y="70.62" as="targetPoint" />
          </mxGeometry>
        </mxCell>
        <mxCell id="po9PtzL4gyYbx_RmuDyr-148" value="has" style="shape=rhombus;perimeter=rhombusPerimeter;whiteSpace=wrap;html=1;align=center;dashed=0;strokeColor=default;strokeWidth=1;verticalAlign=middle;spacingLeft=6;spacingTop=0;fontFamily=Helvetica;fontSize=12;fontColor=default;labelBackgroundColor=default;fillColor=default;" parent="po9PtzL4gyYbx_RmuDyr-146" vertex="1">
          <mxGeometry x="-40" y="135.62" width="90" height="30" as="geometry" />
        </mxCell>
        <mxCell id="po9PtzL4gyYbx_RmuDyr-149" value="" style="endArrow=none;html=1;rounded=0;strokeColor=default;align=center;verticalAlign=middle;fontFamily=Helvetica;fontSize=12;fontColor=default;labelBackgroundColor=default;endSize=3.668421052631579;fillColor=#000000;entryX=0;entryY=0.5;entryDx=0;entryDy=0;exitX=1;exitY=0.5;exitDx=0;exitDy=0;" parent="po9PtzL4gyYbx_RmuDyr-146" source="po9PtzL4gyYbx_RmuDyr-148" target="po9PtzL4gyYbx_RmuDyr-76" edge="1">
          <mxGeometry width="50" height="50" relative="1" as="geometry">
            <mxPoint x="-10" y="230" as="sourcePoint" />
            <mxPoint x="40" y="180" as="targetPoint" />
          </mxGeometry>
        </mxCell>
        <mxCell id="H4lZpNgvOIqqtPZvh9XI-13" value="orderId" style="ellipse;whiteSpace=wrap;html=1;align=center;dashed=0;strokeColor=default;strokeWidth=1;verticalAlign=middle;spacingLeft=6;spacingTop=0;fontFamily=Helvetica;fontSize=12;fontColor=default;labelBackgroundColor=default;fillColor=default;" parent="po9PtzL4gyYbx_RmuDyr-146" vertex="1">
          <mxGeometry x="30" y="20" width="80" height="40" as="geometry" />
        </mxCell>
        <mxCell id="H4lZpNgvOIqqtPZvh9XI-14" value="" style="endArrow=none;dashed=1;html=1;rounded=0;" parent="po9PtzL4gyYbx_RmuDyr-146" edge="1">
          <mxGeometry width="50" height="50" relative="1" as="geometry">
            <mxPoint x="45" y="50" as="sourcePoint" />
            <mxPoint x="105" y="50" as="targetPoint" />
          </mxGeometry>
        </mxCell>
        <mxCell id="H4lZpNgvOIqqtPZvh9XI-15" value="" style="endArrow=none;html=1;rounded=0;entryX=0.703;entryY=0.916;entryDx=0;entryDy=0;entryPerimeter=0;" parent="po9PtzL4gyYbx_RmuDyr-146" target="H4lZpNgvOIqqtPZvh9XI-13" edge="1">
          <mxGeometry width="50" height="50" relative="1" as="geometry">
            <mxPoint x="160" y="130" as="sourcePoint" />
            <mxPoint x="80" y="70" as="targetPoint" />
          </mxGeometry>
        </mxCell>
        <mxCell id="H4lZpNgvOIqqtPZvh9XI-16" value="" style="endArrow=none;dashed=1;html=1;rounded=0;" parent="po9PtzL4gyYbx_RmuDyr-146" edge="1">
          <mxGeometry width="50" height="50" relative="1" as="geometry">
            <mxPoint x="150" y="30" as="sourcePoint" />
            <mxPoint x="190" y="30" as="targetPoint" />
          </mxGeometry>
        </mxCell>
        <mxCell id="po9PtzL4gyYbx_RmuDyr-159" value="cType" style="ellipse;whiteSpace=wrap;html=1;align=center;dashed=0;strokeColor=default;strokeWidth=1;verticalAlign=middle;spacingLeft=6;spacingTop=0;fontFamily=Helvetica;fontSize=12;fontColor=default;labelBackgroundColor=default;fillColor=default;" parent="1" vertex="1">
          <mxGeometry x="190" y="120" width="80" height="40" as="geometry" />
        </mxCell>
        <mxCell id="po9PtzL4gyYbx_RmuDyr-161" value="milkKind" style="ellipse;whiteSpace=wrap;html=1;align=center;dashed=0;strokeColor=default;strokeWidth=1;verticalAlign=middle;spacingLeft=6;spacingTop=0;fontFamily=Helvetica;fontSize=12;fontColor=default;labelBackgroundColor=default;fillColor=default;" parent="1" vertex="1">
          <mxGeometry x="280" y="160" width="80" height="40" as="geometry" />
        </mxCell>
        <mxCell id="po9PtzL4gyYbx_RmuDyr-164" value="" style="endArrow=none;html=1;rounded=0;strokeColor=default;align=center;verticalAlign=middle;fontFamily=Helvetica;fontSize=12;fontColor=default;labelBackgroundColor=default;endSize=3.668421052631579;fillColor=#000000;entryX=0.5;entryY=1;entryDx=0;entryDy=0;exitX=0.5;exitY=0;exitDx=0;exitDy=0;" parent="1" source="H4lZpNgvOIqqtPZvh9XI-9" target="po9PtzL4gyYbx_RmuDyr-159" edge="1">
          <mxGeometry width="50" height="50" relative="1" as="geometry">
            <mxPoint x="230" y="210" as="sourcePoint" />
            <mxPoint x="230" y="170" as="targetPoint" />
          </mxGeometry>
        </mxCell>
        <mxCell id="po9PtzL4gyYbx_RmuDyr-165" value="" style="endArrow=none;html=1;rounded=0;strokeColor=default;align=center;verticalAlign=middle;fontFamily=Helvetica;fontSize=12;fontColor=default;labelBackgroundColor=default;endSize=3.668421052631579;fillColor=#000000;entryX=0.5;entryY=1;entryDx=0;entryDy=0;exitX=1;exitY=0.5;exitDx=0;exitDy=0;" parent="1" source="H4lZpNgvOIqqtPZvh9XI-9" target="po9PtzL4gyYbx_RmuDyr-161" edge="1">
          <mxGeometry width="50" height="50" relative="1" as="geometry">
            <mxPoint x="280" y="230" as="sourcePoint" />
            <mxPoint x="330" y="210" as="targetPoint" />
          </mxGeometry>
        </mxCell>
        <mxCell id="po9PtzL4gyYbx_RmuDyr-166" value="Person" style="whiteSpace=wrap;html=1;align=center;dashed=0;strokeColor=default;strokeWidth=1;verticalAlign=middle;spacingLeft=6;spacingTop=0;fontFamily=Helvetica;fontSize=12;fontColor=default;labelBackgroundColor=default;fillColor=default;" parent="1" vertex="1">
          <mxGeometry x="1320" y="312.5" width="100" height="40" as="geometry" />
        </mxCell>
        <mxCell id="po9PtzL4gyYbx_RmuDyr-169" value="f_Name" style="ellipse;whiteSpace=wrap;html=1;align=center;dashed=0;strokeColor=default;strokeWidth=1;verticalAlign=middle;spacingLeft=6;spacingTop=0;fontFamily=Helvetica;fontSize=12;fontColor=default;labelBackgroundColor=default;fillColor=default;" parent="1" vertex="1">
          <mxGeometry x="1470" y="253.12" width="80" height="40" as="geometry" />
        </mxCell>
        <mxCell id="po9PtzL4gyYbx_RmuDyr-170" value="l_Name" style="ellipse;whiteSpace=wrap;html=1;align=center;dashed=0;strokeColor=default;strokeWidth=1;verticalAlign=middle;spacingLeft=6;spacingTop=0;fontFamily=Helvetica;fontSize=12;fontColor=default;labelBackgroundColor=default;fillColor=default;" parent="1" vertex="1">
          <mxGeometry x="1490" y="323.12" width="80" height="40" as="geometry" />
        </mxCell>
        <mxCell id="po9PtzL4gyYbx_RmuDyr-171" value="" style="endArrow=none;html=1;rounded=0;strokeColor=default;align=center;verticalAlign=middle;fontFamily=Helvetica;fontSize=12;fontColor=default;labelBackgroundColor=default;endSize=3.668421052631579;fillColor=#000000;entryX=0;entryY=0.5;entryDx=0;entryDy=0;" parent="1" target="po9PtzL4gyYbx_RmuDyr-169" edge="1">
          <mxGeometry width="50" height="50" relative="1" as="geometry">
            <mxPoint x="1420" y="333.12" as="sourcePoint" />
            <mxPoint x="1460" y="293.12" as="targetPoint" />
          </mxGeometry>
        </mxCell>
        <mxCell id="po9PtzL4gyYbx_RmuDyr-172" value="" style="endArrow=none;html=1;rounded=0;strokeColor=default;align=center;verticalAlign=middle;fontFamily=Helvetica;fontSize=12;fontColor=default;labelBackgroundColor=default;endSize=3.668421052631579;fillColor=#000000;entryX=0;entryY=0.5;entryDx=0;entryDy=0;exitX=1;exitY=0.5;exitDx=0;exitDy=0;" parent="1" source="po9PtzL4gyYbx_RmuDyr-166" target="po9PtzL4gyYbx_RmuDyr-170" edge="1">
          <mxGeometry width="50" height="50" relative="1" as="geometry">
            <mxPoint x="1370" y="443.12" as="sourcePoint" />
            <mxPoint x="1420" y="393.12" as="targetPoint" />
          </mxGeometry>
        </mxCell>
        <mxCell id="po9PtzL4gyYbx_RmuDyr-173" value="isA" style="triangle;whiteSpace=wrap;html=1;dashed=0;strokeColor=default;strokeWidth=1;align=left;verticalAlign=middle;spacingLeft=6;spacingTop=0;fontFamily=Helvetica;fontSize=12;fontColor=default;labelBackgroundColor=default;fillColor=default;rotation=-90;" parent="1" vertex="1">
          <mxGeometry x="1332.5" y="381.5" width="35" height="47.5" as="geometry" />
        </mxCell>
        <mxCell id="po9PtzL4gyYbx_RmuDyr-174" value="" style="endArrow=none;html=1;rounded=0;strokeColor=default;align=center;verticalAlign=middle;fontFamily=Helvetica;fontSize=12;fontColor=default;labelBackgroundColor=default;endSize=3.668421052631579;fillColor=#000000;entryX=0.5;entryY=1;entryDx=0;entryDy=0;exitX=1;exitY=0.5;exitDx=0;exitDy=0;" parent="1" source="po9PtzL4gyYbx_RmuDyr-173" target="po9PtzL4gyYbx_RmuDyr-166" edge="1">
          <mxGeometry width="50" height="50" relative="1" as="geometry">
            <mxPoint x="1270" y="433.12" as="sourcePoint" />
            <mxPoint x="1320" y="383.12" as="targetPoint" />
          </mxGeometry>
        </mxCell>
        <mxCell id="po9PtzL4gyYbx_RmuDyr-175" value="Customer" style="whiteSpace=wrap;html=1;align=center;dashed=0;strokeColor=default;strokeWidth=1;verticalAlign=middle;spacingLeft=6;spacingTop=0;fontFamily=Helvetica;fontSize=12;fontColor=default;labelBackgroundColor=default;fillColor=default;" parent="1" vertex="1">
          <mxGeometry x="1130" y="460" width="100" height="40" as="geometry" />
        </mxCell>
        <mxCell id="po9PtzL4gyYbx_RmuDyr-177" value="Deliver" style="whiteSpace=wrap;html=1;align=center;dashed=0;strokeColor=default;strokeWidth=1;verticalAlign=middle;spacingLeft=6;spacingTop=0;fontFamily=Helvetica;fontSize=12;fontColor=default;labelBackgroundColor=default;fillColor=default;" parent="1" vertex="1">
          <mxGeometry x="1250" y="610" width="100" height="40" as="geometry" />
        </mxCell>
        <mxCell id="po9PtzL4gyYbx_RmuDyr-178" value="age" style="ellipse;whiteSpace=wrap;html=1;align=center;dashed=0;strokeColor=default;strokeWidth=1;verticalAlign=middle;spacingLeft=6;spacingTop=0;fontFamily=Helvetica;fontSize=12;fontColor=default;labelBackgroundColor=default;fillColor=default;" parent="1" vertex="1">
          <mxGeometry x="1104.25" y="631.87" width="82" height="40" as="geometry" />
        </mxCell>
        <mxCell id="po9PtzL4gyYbx_RmuDyr-179" value="salary" style="ellipse;whiteSpace=wrap;html=1;align=center;dashed=0;strokeColor=default;strokeWidth=1;verticalAlign=middle;spacingLeft=6;spacingTop=0;fontFamily=Helvetica;fontSize=12;fontColor=default;labelBackgroundColor=default;fillColor=default;" parent="1" vertex="1">
          <mxGeometry x="1350" y="716.87" width="82" height="40" as="geometry" />
        </mxCell>
        <mxCell id="po9PtzL4gyYbx_RmuDyr-183" value="" style="shape=flexArrow;endArrow=classic;html=1;rounded=0;strokeColor=default;align=center;verticalAlign=middle;fontFamily=Helvetica;fontSize=12;fontColor=default;labelBackgroundColor=default;endSize=3.2526315789473683;fillColor=#000000;entryX=0;entryY=0.5;entryDx=0;entryDy=0;exitX=0.5;exitY=1;exitDx=0;exitDy=0;endWidth=0.9695290858725762;width=3.1578947368421053;" parent="1" source="H4lZpNgvOIqqtPZvh9XI-9" target="po9PtzL4gyYbx_RmuDyr-148" edge="1">
          <mxGeometry width="50" height="50" relative="1" as="geometry">
            <mxPoint x="235.0999999999999" y="251.03999999999996" as="sourcePoint" />
            <mxPoint x="430" y="420" as="targetPoint" />
          </mxGeometry>
        </mxCell>
        <mxCell id="po9PtzL4gyYbx_RmuDyr-186" value="personId" style="ellipse;whiteSpace=wrap;html=1;align=center;fontStyle=4;dashed=0;strokeColor=default;strokeWidth=1;verticalAlign=middle;spacingLeft=6;spacingTop=0;fontFamily=Helvetica;fontSize=12;fontColor=default;labelBackgroundColor=default;fillColor=default;" parent="1" vertex="1">
          <mxGeometry x="1352.5" y="223.12" width="100" height="40" as="geometry" />
        </mxCell>
        <mxCell id="po9PtzL4gyYbx_RmuDyr-187" value="" style="endArrow=none;html=1;rounded=0;strokeColor=default;align=center;verticalAlign=middle;fontFamily=Helvetica;fontSize=12;fontColor=default;labelBackgroundColor=default;endSize=3.668421052631579;fillColor=#000000;entryX=0.5;entryY=1;entryDx=0;entryDy=0;exitX=0.5;exitY=0;exitDx=0;exitDy=0;" parent="1" source="po9PtzL4gyYbx_RmuDyr-166" target="po9PtzL4gyYbx_RmuDyr-186" edge="1">
          <mxGeometry width="50" height="50" relative="1" as="geometry">
            <mxPoint x="1270" y="323.12" as="sourcePoint" />
            <mxPoint x="1320" y="273.12" as="targetPoint" />
          </mxGeometry>
        </mxCell>
        <mxCell id="po9PtzL4gyYbx_RmuDyr-188" value="" style="endArrow=none;html=1;rounded=0;strokeColor=default;align=center;verticalAlign=middle;fontFamily=Helvetica;fontSize=12;fontColor=default;labelBackgroundColor=default;endSize=3.668421052631579;fillColor=#000000;entryX=0;entryY=0.5;entryDx=0;entryDy=0;exitX=0.5;exitY=0;exitDx=0;exitDy=0;" parent="1" source="po9PtzL4gyYbx_RmuDyr-177" target="po9PtzL4gyYbx_RmuDyr-173" edge="1">
          <mxGeometry width="50" height="50" relative="1" as="geometry">
            <mxPoint x="1260" y="420" as="sourcePoint" />
            <mxPoint x="1310" y="370" as="targetPoint" />
          </mxGeometry>
        </mxCell>
        <mxCell id="po9PtzL4gyYbx_RmuDyr-189" value="" style="endArrow=none;html=1;rounded=0;strokeColor=default;align=center;verticalAlign=middle;fontFamily=Helvetica;fontSize=12;fontColor=default;labelBackgroundColor=default;endSize=3.668421052631579;fillColor=#000000;entryX=1;entryY=0.5;entryDx=0;entryDy=0;exitX=0;exitY=0.5;exitDx=0;exitDy=0;" parent="1" source="po9PtzL4gyYbx_RmuDyr-177" target="po9PtzL4gyYbx_RmuDyr-178" edge="1">
          <mxGeometry width="50" height="50" relative="1" as="geometry">
            <mxPoint x="1320" y="506.87" as="sourcePoint" />
            <mxPoint x="1370" y="456.87" as="targetPoint" />
          </mxGeometry>
        </mxCell>
        <mxCell id="po9PtzL4gyYbx_RmuDyr-190" value="" style="endArrow=none;html=1;rounded=0;strokeColor=default;align=center;verticalAlign=middle;fontFamily=Helvetica;fontSize=12;fontColor=default;labelBackgroundColor=default;endSize=3.668421052631579;fillColor=#000000;exitX=1;exitY=0.5;exitDx=0;exitDy=0;entryX=0;entryY=0;entryDx=0;entryDy=0;" parent="1" source="po9PtzL4gyYbx_RmuDyr-177" target="po9PtzL4gyYbx_RmuDyr-179" edge="1">
          <mxGeometry width="50" height="50" relative="1" as="geometry">
            <mxPoint x="1390" y="606.87" as="sourcePoint" />
            <mxPoint x="1400" y="670" as="targetPoint" />
          </mxGeometry>
        </mxCell>
        <mxCell id="po9PtzL4gyYbx_RmuDyr-191" value="email" style="ellipse;whiteSpace=wrap;html=1;align=center;dashed=0;strokeColor=default;strokeWidth=1;verticalAlign=middle;spacingLeft=6;spacingTop=0;fontFamily=Helvetica;fontSize=12;fontColor=default;labelBackgroundColor=default;fillColor=default;" parent="1" vertex="1">
          <mxGeometry x="1045" y="570" width="80" height="40" as="geometry" />
        </mxCell>
        <mxCell id="po9PtzL4gyYbx_RmuDyr-192" value="contactNum" style="ellipse;whiteSpace=wrap;html=1;align=center;dashed=0;strokeColor=default;strokeWidth=1;verticalAlign=middle;spacingLeft=6;spacingTop=0;fontFamily=Helvetica;fontSize=12;fontColor=default;labelBackgroundColor=default;fillColor=default;" parent="1" vertex="1">
          <mxGeometry x="1165" y="560" width="80" height="40" as="geometry" />
        </mxCell>
        <mxCell id="po9PtzL4gyYbx_RmuDyr-193" value="" style="endArrow=none;html=1;rounded=0;strokeColor=default;align=center;verticalAlign=middle;fontFamily=Helvetica;fontSize=12;fontColor=default;labelBackgroundColor=default;endSize=3.668421052631579;fillColor=#000000;entryX=0.5;entryY=1;entryDx=0;entryDy=0;exitX=0.5;exitY=0;exitDx=0;exitDy=0;" parent="1" source="po9PtzL4gyYbx_RmuDyr-191" target="po9PtzL4gyYbx_RmuDyr-175" edge="1">
          <mxGeometry width="50" height="50" relative="1" as="geometry">
            <mxPoint x="1020" y="470" as="sourcePoint" />
            <mxPoint x="1070" y="420" as="targetPoint" />
          </mxGeometry>
        </mxCell>
        <mxCell id="po9PtzL4gyYbx_RmuDyr-194" value="" style="endArrow=none;html=1;rounded=0;strokeColor=default;align=center;verticalAlign=middle;fontFamily=Helvetica;fontSize=12;fontColor=default;labelBackgroundColor=default;endSize=3.668421052631579;fillColor=#000000;entryX=0.5;entryY=1;entryDx=0;entryDy=0;exitX=0.5;exitY=0;exitDx=0;exitDy=0;" parent="1" source="po9PtzL4gyYbx_RmuDyr-192" target="po9PtzL4gyYbx_RmuDyr-175" edge="1">
          <mxGeometry width="50" height="50" relative="1" as="geometry">
            <mxPoint x="1180" y="570" as="sourcePoint" />
            <mxPoint x="1230" y="520" as="targetPoint" />
          </mxGeometry>
        </mxCell>
        <mxCell id="po9PtzL4gyYbx_RmuDyr-195" value="" style="endArrow=none;html=1;rounded=0;strokeColor=default;align=center;verticalAlign=middle;fontFamily=Helvetica;fontSize=12;fontColor=default;labelBackgroundColor=default;endSize=3.668421052631579;fillColor=#000000;entryX=0;entryY=0.5;entryDx=0;entryDy=0;exitX=0.5;exitY=0;exitDx=0;exitDy=0;" parent="1" source="po9PtzL4gyYbx_RmuDyr-175" target="po9PtzL4gyYbx_RmuDyr-173" edge="1">
          <mxGeometry width="50" height="50" relative="1" as="geometry">
            <mxPoint x="1150" y="360" as="sourcePoint" />
            <mxPoint x="1200" y="310" as="targetPoint" />
          </mxGeometry>
        </mxCell>
        <mxCell id="po9PtzL4gyYbx_RmuDyr-197" value="Payment" style="whiteSpace=wrap;html=1;align=center;dashed=0;strokeColor=default;strokeWidth=1;verticalAlign=middle;spacingLeft=6;spacingTop=0;fontFamily=Helvetica;fontSize=12;fontColor=default;labelBackgroundColor=default;fillColor=default;" parent="1" vertex="1">
          <mxGeometry x="817.5" y="181.88" width="100" height="40" as="geometry" />
        </mxCell>
        <mxCell id="po9PtzL4gyYbx_RmuDyr-198" value="choose" style="shape=rhombus;perimeter=rhombusPerimeter;whiteSpace=wrap;html=1;align=center;dashed=0;strokeColor=default;strokeWidth=1;verticalAlign=middle;spacingLeft=6;spacingTop=0;fontFamily=Helvetica;fontSize=12;fontColor=default;labelBackgroundColor=default;fillColor=default;" parent="1" vertex="1">
          <mxGeometry x="822.5" y="241.88" width="90" height="39" as="geometry" />
        </mxCell>
        <mxCell id="po9PtzL4gyYbx_RmuDyr-200" value="" style="shape=flexArrow;endArrow=classic;html=1;rounded=0;strokeColor=default;align=center;verticalAlign=middle;fontFamily=Helvetica;fontSize=12;fontColor=default;labelBackgroundColor=default;endSize=3.2526315789473683;fillColor=#000000;entryX=0.5;entryY=0;entryDx=0;entryDy=0;exitX=0.5;exitY=1;exitDx=0;exitDy=0;endWidth=0.9695290858725762;width=3.1578947368421053;" parent="1" source="po9PtzL4gyYbx_RmuDyr-197" target="po9PtzL4gyYbx_RmuDyr-198" edge="1">
          <mxGeometry width="50" height="50" relative="1" as="geometry">
            <mxPoint x="877.5" y="315.88" as="sourcePoint" />
            <mxPoint x="877.5" y="290.88" as="targetPoint" />
          </mxGeometry>
        </mxCell>
        <mxCell id="po9PtzL4gyYbx_RmuDyr-201" value="" style="endArrow=none;html=1;rounded=0;strokeColor=default;align=center;verticalAlign=middle;fontFamily=Helvetica;fontSize=12;fontColor=default;labelBackgroundColor=default;endSize=3.668421052631579;fillColor=#000000;entryX=0.5;entryY=1;entryDx=0;entryDy=0;exitX=0.5;exitY=0;exitDx=0;exitDy=0;" parent="1" source="po9PtzL4gyYbx_RmuDyr-60" target="po9PtzL4gyYbx_RmuDyr-198" edge="1">
          <mxGeometry width="50" height="50" relative="1" as="geometry">
            <mxPoint x="817.5" y="341.88" as="sourcePoint" />
            <mxPoint x="867.5" y="291.88" as="targetPoint" />
          </mxGeometry>
        </mxCell>
        <mxCell id="po9PtzL4gyYbx_RmuDyr-202" value="payMethod" style="ellipse;whiteSpace=wrap;html=1;align=center;dashed=0;strokeColor=default;strokeWidth=1;verticalAlign=middle;spacingLeft=6;spacingTop=0;fontFamily=Helvetica;fontSize=12;fontColor=default;labelBackgroundColor=default;fillColor=default;" parent="1" vertex="1">
          <mxGeometry x="712.5" y="141.88" width="80" height="40" as="geometry" />
        </mxCell>
        <mxCell id="po9PtzL4gyYbx_RmuDyr-203" value="" style="endArrow=none;html=1;rounded=0;strokeColor=default;align=center;verticalAlign=middle;fontFamily=Helvetica;fontSize=12;fontColor=default;labelBackgroundColor=default;endSize=3.668421052631579;fillColor=#000000;entryX=1;entryY=1;entryDx=0;entryDy=0;exitX=0;exitY=0.5;exitDx=0;exitDy=0;" parent="1" source="po9PtzL4gyYbx_RmuDyr-197" target="po9PtzL4gyYbx_RmuDyr-202" edge="1">
          <mxGeometry width="50" height="50" relative="1" as="geometry">
            <mxPoint x="737.5" y="261.88" as="sourcePoint" />
            <mxPoint x="787.5" y="211.88" as="targetPoint" />
          </mxGeometry>
        </mxCell>
        <mxCell id="po9PtzL4gyYbx_RmuDyr-204" value="&lt;u&gt;paymentId&lt;/u&gt;" style="ellipse;whiteSpace=wrap;html=1;align=center;dashed=0;strokeColor=default;strokeWidth=1;verticalAlign=middle;spacingLeft=6;spacingTop=0;fontFamily=Helvetica;fontSize=12;fontColor=default;labelBackgroundColor=default;fillColor=default;" parent="1" vertex="1">
          <mxGeometry x="830" y="110" width="100" height="40" as="geometry" />
        </mxCell>
        <mxCell id="po9PtzL4gyYbx_RmuDyr-205" value="" style="endArrow=none;html=1;rounded=0;strokeColor=default;align=center;verticalAlign=middle;fontFamily=Helvetica;fontSize=12;fontColor=default;labelBackgroundColor=default;endSize=3.668421052631579;fillColor=#000000;entryX=0.5;entryY=1;entryDx=0;entryDy=0;exitX=0.5;exitY=0;exitDx=0;exitDy=0;" parent="1" source="po9PtzL4gyYbx_RmuDyr-197" target="po9PtzL4gyYbx_RmuDyr-204" edge="1">
          <mxGeometry width="50" height="50" relative="1" as="geometry">
            <mxPoint x="867.5" y="191.88" as="sourcePoint" />
            <mxPoint x="847.5" y="521.88" as="targetPoint" />
          </mxGeometry>
        </mxCell>
        <mxCell id="po9PtzL4gyYbx_RmuDyr-207" value="street" style="ellipse;whiteSpace=wrap;html=1;align=center;dashed=0;strokeColor=default;strokeWidth=1;verticalAlign=middle;spacingLeft=6;spacingTop=0;fontFamily=Helvetica;fontSize=12;fontColor=default;labelBackgroundColor=default;fillColor=default;" parent="1" vertex="1">
          <mxGeometry x="860" y="716.87" width="80" height="40" as="geometry" />
        </mxCell>
        <mxCell id="po9PtzL4gyYbx_RmuDyr-208" value="suburbs" style="ellipse;whiteSpace=wrap;html=1;align=center;dashed=0;strokeColor=default;strokeWidth=1;verticalAlign=middle;spacingLeft=6;spacingTop=0;fontFamily=Helvetica;fontSize=12;fontColor=default;labelBackgroundColor=default;fillColor=default;" parent="1" vertex="1">
          <mxGeometry x="810" y="770" width="80" height="40" as="geometry" />
        </mxCell>
        <mxCell id="po9PtzL4gyYbx_RmuDyr-209" value="unit" style="ellipse;whiteSpace=wrap;html=1;align=center;dashed=0;strokeColor=default;strokeWidth=1;verticalAlign=middle;spacingLeft=6;spacingTop=0;fontFamily=Helvetica;fontSize=12;fontColor=default;labelBackgroundColor=default;fillColor=default;" parent="1" vertex="1">
          <mxGeometry x="820" y="830" width="80" height="40" as="geometry" />
        </mxCell>
        <mxCell id="po9PtzL4gyYbx_RmuDyr-211" value="date" style="ellipse;whiteSpace=wrap;html=1;align=center;dashed=0;strokeColor=default;strokeWidth=1;verticalAlign=middle;spacingLeft=6;spacingTop=0;fontFamily=Helvetica;fontSize=12;fontColor=default;labelBackgroundColor=default;fillColor=default;" parent="1" vertex="1">
          <mxGeometry x="930" y="905" width="80" height="40" as="geometry" />
        </mxCell>
        <mxCell id="po9PtzL4gyYbx_RmuDyr-212" value="time" style="ellipse;whiteSpace=wrap;html=1;align=center;dashed=0;strokeColor=default;strokeWidth=1;verticalAlign=middle;spacingLeft=6;spacingTop=0;fontFamily=Helvetica;fontSize=12;fontColor=default;labelBackgroundColor=default;fillColor=default;" parent="1" vertex="1">
          <mxGeometry x="870" y="875" width="80" height="40" as="geometry" />
        </mxCell>
        <mxCell id="po9PtzL4gyYbx_RmuDyr-213" value="instruction" style="ellipse;whiteSpace=wrap;html=1;align=center;dashed=0;strokeColor=default;strokeWidth=1;verticalAlign=middle;spacingLeft=6;spacingTop=0;fontFamily=Helvetica;fontSize=12;fontColor=default;labelBackgroundColor=default;fillColor=default;" parent="1" vertex="1">
          <mxGeometry x="1010" y="890" width="70" height="40" as="geometry" />
        </mxCell>
        <mxCell id="po9PtzL4gyYbx_RmuDyr-214" value="" style="endArrow=none;html=1;rounded=0;strokeColor=default;align=center;verticalAlign=middle;fontFamily=Helvetica;fontSize=12;fontColor=default;labelBackgroundColor=default;endSize=3.668421052631579;fillColor=#000000;entryX=1;entryY=1;entryDx=0;entryDy=0;exitX=0.25;exitY=0;exitDx=0;exitDy=0;" parent="1" source="po9PtzL4gyYbx_RmuDyr-71" target="po9PtzL4gyYbx_RmuDyr-207" edge="1">
          <mxGeometry width="50" height="50" relative="1" as="geometry">
            <mxPoint x="900" y="810" as="sourcePoint" />
            <mxPoint x="950" y="760" as="targetPoint" />
          </mxGeometry>
        </mxCell>
        <mxCell id="po9PtzL4gyYbx_RmuDyr-215" value="" style="endArrow=none;html=1;rounded=0;strokeColor=default;align=center;verticalAlign=middle;fontFamily=Helvetica;fontSize=12;fontColor=default;labelBackgroundColor=default;endSize=3.668421052631579;fillColor=#000000;entryX=0;entryY=0.5;entryDx=0;entryDy=0;exitX=1;exitY=0.5;exitDx=0;exitDy=0;" parent="1" source="po9PtzL4gyYbx_RmuDyr-208" target="po9PtzL4gyYbx_RmuDyr-71" edge="1">
          <mxGeometry width="50" height="50" relative="1" as="geometry">
            <mxPoint x="880" y="840" as="sourcePoint" />
            <mxPoint x="930" y="790" as="targetPoint" />
          </mxGeometry>
        </mxCell>
        <mxCell id="po9PtzL4gyYbx_RmuDyr-216" value="" style="endArrow=none;html=1;rounded=0;strokeColor=default;align=center;verticalAlign=middle;fontFamily=Helvetica;fontSize=12;fontColor=default;labelBackgroundColor=default;endSize=3.668421052631579;fillColor=#000000;entryX=0.25;entryY=1;entryDx=0;entryDy=0;exitX=1;exitY=0.5;exitDx=0;exitDy=0;" parent="1" source="po9PtzL4gyYbx_RmuDyr-209" target="po9PtzL4gyYbx_RmuDyr-71" edge="1">
          <mxGeometry width="50" height="50" relative="1" as="geometry">
            <mxPoint x="900" y="880" as="sourcePoint" />
            <mxPoint x="950" y="830" as="targetPoint" />
          </mxGeometry>
        </mxCell>
        <mxCell id="po9PtzL4gyYbx_RmuDyr-217" value="" style="endArrow=none;html=1;rounded=0;strokeColor=default;align=center;verticalAlign=middle;fontFamily=Helvetica;fontSize=12;fontColor=default;labelBackgroundColor=default;endSize=3.668421052631579;fillColor=#000000;entryX=0.5;entryY=1;entryDx=0;entryDy=0;exitX=1;exitY=0;exitDx=0;exitDy=0;" parent="1" source="po9PtzL4gyYbx_RmuDyr-212" target="po9PtzL4gyYbx_RmuDyr-71" edge="1">
          <mxGeometry width="50" height="50" relative="1" as="geometry">
            <mxPoint x="950" y="920" as="sourcePoint" />
            <mxPoint x="1000" y="870" as="targetPoint" />
          </mxGeometry>
        </mxCell>
        <mxCell id="po9PtzL4gyYbx_RmuDyr-218" value="" style="endArrow=none;html=1;rounded=0;strokeColor=default;align=center;verticalAlign=middle;fontFamily=Helvetica;fontSize=12;fontColor=default;labelBackgroundColor=default;endSize=3.668421052631579;fillColor=#000000;entryX=0.5;entryY=1;entryDx=0;entryDy=0;exitX=0.5;exitY=0;exitDx=0;exitDy=0;" parent="1" source="po9PtzL4gyYbx_RmuDyr-211" target="po9PtzL4gyYbx_RmuDyr-71" edge="1">
          <mxGeometry width="50" height="50" relative="1" as="geometry">
            <mxPoint x="960" y="910" as="sourcePoint" />
            <mxPoint x="1010" y="860" as="targetPoint" />
          </mxGeometry>
        </mxCell>
        <mxCell id="po9PtzL4gyYbx_RmuDyr-219" value="" style="endArrow=none;html=1;rounded=0;strokeColor=default;align=center;verticalAlign=middle;fontFamily=Helvetica;fontSize=12;fontColor=default;labelBackgroundColor=default;endSize=3.668421052631579;fillColor=#000000;entryX=0.75;entryY=1;entryDx=0;entryDy=0;exitX=0.5;exitY=0;exitDx=0;exitDy=0;" parent="1" source="po9PtzL4gyYbx_RmuDyr-213" target="po9PtzL4gyYbx_RmuDyr-71" edge="1">
          <mxGeometry width="50" height="50" relative="1" as="geometry">
            <mxPoint x="1010" y="900" as="sourcePoint" />
            <mxPoint x="1060" y="850" as="targetPoint" />
          </mxGeometry>
        </mxCell>
        <mxCell id="po9PtzL4gyYbx_RmuDyr-224" value="delivery" style="shape=rhombus;perimeter=rhombusPerimeter;whiteSpace=wrap;html=1;align=center;dashed=0;strokeColor=default;strokeWidth=1;verticalAlign=middle;spacingLeft=6;spacingTop=0;fontFamily=Helvetica;fontSize=12;fontColor=default;labelBackgroundColor=default;fillColor=default;" parent="1" vertex="1">
          <mxGeometry x="1210" y="705" width="100" height="50" as="geometry" />
        </mxCell>
        <mxCell id="po9PtzL4gyYbx_RmuDyr-225" value="" style="endArrow=classic;html=1;rounded=0;strokeColor=default;align=center;verticalAlign=middle;fontFamily=Helvetica;fontSize=12;fontColor=default;labelBackgroundColor=default;endSize=3.668421052631579;fillColor=#000000;entryX=0;entryY=0.5;entryDx=0;entryDy=0;exitX=1;exitY=0.5;exitDx=0;exitDy=0;" parent="1" source="po9PtzL4gyYbx_RmuDyr-71" target="po9PtzL4gyYbx_RmuDyr-224" edge="1">
          <mxGeometry width="50" height="50" relative="1" as="geometry">
            <mxPoint x="1010" y="660" as="sourcePoint" />
            <mxPoint x="1060" y="610" as="targetPoint" />
          </mxGeometry>
        </mxCell>
        <mxCell id="po9PtzL4gyYbx_RmuDyr-226" value="" style="endArrow=none;html=1;rounded=0;strokeColor=default;align=center;verticalAlign=middle;fontFamily=Helvetica;fontSize=12;fontColor=default;labelBackgroundColor=default;endSize=3.668421052631579;fillColor=#000000;entryX=0.5;entryY=1;entryDx=0;entryDy=0;exitX=1;exitY=0.5;exitDx=0;exitDy=0;" parent="1" source="po9PtzL4gyYbx_RmuDyr-224" target="po9PtzL4gyYbx_RmuDyr-177" edge="1">
          <mxGeometry width="50" height="50" relative="1" as="geometry">
            <mxPoint x="1200" y="710" as="sourcePoint" />
            <mxPoint x="1180" y="610" as="targetPoint" />
          </mxGeometry>
        </mxCell>
        <mxCell id="po9PtzL4gyYbx_RmuDyr-227" value="" style="endArrow=none;html=1;rounded=0;strokeColor=default;align=center;verticalAlign=middle;fontFamily=Helvetica;fontSize=12;fontColor=default;labelBackgroundColor=default;endSize=3.668421052631579;fillColor=#000000;exitX=0.75;exitY=0;exitDx=0;exitDy=0;entryX=0.5;entryY=1;entryDx=0;entryDy=0;" parent="1" source="po9PtzL4gyYbx_RmuDyr-71" target="po9PtzL4gyYbx_RmuDyr-228" edge="1">
          <mxGeometry width="50" height="50" relative="1" as="geometry">
            <mxPoint x="1010" y="760" as="sourcePoint" />
            <mxPoint x="1030" y="750" as="targetPoint" />
          </mxGeometry>
        </mxCell>
        <mxCell id="po9PtzL4gyYbx_RmuDyr-228" value="delivery_Fee" style="ellipse;whiteSpace=wrap;html=1;align=center;dashed=0;strokeColor=default;strokeWidth=1;verticalAlign=middle;spacingLeft=6;spacingTop=0;fontFamily=Helvetica;fontSize=12;fontColor=default;labelBackgroundColor=default;fillColor=default;" parent="1" vertex="1">
          <mxGeometry x="995" y="710" width="100" height="40" as="geometry" />
        </mxCell>
        <mxCell id="po9PtzL4gyYbx_RmuDyr-238" value="make" style="shape=rhombus;perimeter=rhombusPerimeter;whiteSpace=wrap;html=1;align=center;dashed=0;strokeColor=default;strokeWidth=1;verticalAlign=middle;spacingLeft=6;spacingTop=0;fontFamily=Helvetica;fontSize=12;fontColor=default;labelBackgroundColor=default;fillColor=default;" parent="1" vertex="1">
          <mxGeometry x="1020" y="400" width="90" height="40" as="geometry" />
        </mxCell>
        <mxCell id="po9PtzL4gyYbx_RmuDyr-239" value="" style="endArrow=none;html=1;rounded=0;strokeColor=default;align=center;verticalAlign=middle;fontFamily=Helvetica;fontSize=12;fontColor=default;labelBackgroundColor=default;endSize=3.668421052631579;fillColor=#000000;entryX=1;entryY=0.5;entryDx=0;entryDy=0;exitX=0;exitY=0.5;exitDx=0;exitDy=0;" parent="1" source="po9PtzL4gyYbx_RmuDyr-175" target="po9PtzL4gyYbx_RmuDyr-238" edge="1">
          <mxGeometry width="50" height="50" relative="1" as="geometry">
            <mxPoint x="1030" y="550" as="sourcePoint" />
            <mxPoint x="1080" y="500" as="targetPoint" />
          </mxGeometry>
        </mxCell>
        <mxCell id="po9PtzL4gyYbx_RmuDyr-240" value="" style="endArrow=none;html=1;rounded=0;strokeColor=default;align=center;verticalAlign=middle;fontFamily=Helvetica;fontSize=12;fontColor=default;labelBackgroundColor=default;endSize=3.668421052631579;fillColor=#000000;exitX=0;exitY=0.5;exitDx=0;exitDy=0;entryX=1;entryY=1;entryDx=0;entryDy=0;" parent="1" source="po9PtzL4gyYbx_RmuDyr-238" target="po9PtzL4gyYbx_RmuDyr-60" edge="1">
          <mxGeometry width="50" height="50" relative="1" as="geometry">
            <mxPoint x="997.5" y="451.88" as="sourcePoint" />
            <mxPoint x="937.5" y="381.88" as="targetPoint" />
          </mxGeometry>
        </mxCell>
        <mxCell id="po9PtzL4gyYbx_RmuDyr-78" value="" style="endArrow=classic;html=1;rounded=0;strokeColor=default;align=center;verticalAlign=middle;fontFamily=Helvetica;fontSize=12;fontColor=default;labelBackgroundColor=default;endSize=3.668421052631579;fillColor=#000000;entryX=0;entryY=0.5;entryDx=0;entryDy=0;exitX=1;exitY=0.5;exitDx=0;exitDy=0;" parent="1" source="po9PtzL4gyYbx_RmuDyr-76" target="po9PtzL4gyYbx_RmuDyr-79" edge="1">
          <mxGeometry width="50" height="50" relative="1" as="geometry">
            <mxPoint x="642.5" y="312.4999999999999" as="sourcePoint" />
            <mxPoint x="672.5" y="242.5" as="targetPoint" />
          </mxGeometry>
        </mxCell>
        <mxCell id="po9PtzL4gyYbx_RmuDyr-248" value="Credit_CardDetail" style="whiteSpace=wrap;html=1;align=center;dashed=0;strokeColor=default;strokeWidth=1;verticalAlign=middle;spacingLeft=6;spacingTop=0;fontFamily=Helvetica;fontSize=12;fontColor=default;labelBackgroundColor=default;fillColor=default;" parent="1" vertex="1">
          <mxGeometry x="1157.5" y="181.88" width="100" height="40" as="geometry" />
        </mxCell>
        <mxCell id="po9PtzL4gyYbx_RmuDyr-249" value="pay by card" style="shape=rhombus;perimeter=rhombusPerimeter;whiteSpace=wrap;html=1;align=center;dashed=0;strokeColor=default;strokeWidth=1;verticalAlign=middle;spacingLeft=6;spacingTop=0;fontFamily=Helvetica;fontSize=12;fontColor=default;labelBackgroundColor=default;fillColor=default;" parent="1" vertex="1">
          <mxGeometry x="978" y="172" width="120" height="60" as="geometry" />
        </mxCell>
        <mxCell id="po9PtzL4gyYbx_RmuDyr-257" value="" style="endArrow=classic;html=1;rounded=0;strokeColor=default;align=center;verticalAlign=middle;fontFamily=Helvetica;fontSize=12;fontColor=default;labelBackgroundColor=default;endSize=3.668421052631579;fillColor=#000000;entryX=0;entryY=0.5;entryDx=0;entryDy=0;exitX=1;exitY=0.5;exitDx=0;exitDy=0;" parent="1" source="po9PtzL4gyYbx_RmuDyr-197" target="po9PtzL4gyYbx_RmuDyr-249" edge="1">
          <mxGeometry width="50" height="50" relative="1" as="geometry">
            <mxPoint x="900" y="270" as="sourcePoint" />
            <mxPoint x="950" y="220" as="targetPoint" />
          </mxGeometry>
        </mxCell>
        <mxCell id="po9PtzL4gyYbx_RmuDyr-258" value="" style="endArrow=none;html=1;rounded=0;strokeColor=default;align=center;verticalAlign=middle;fontFamily=Helvetica;fontSize=12;fontColor=default;labelBackgroundColor=default;endSize=3.668421052631579;fillColor=#000000;entryX=0;entryY=0.5;entryDx=0;entryDy=0;exitX=1;exitY=0.5;exitDx=0;exitDy=0;" parent="1" source="po9PtzL4gyYbx_RmuDyr-249" target="po9PtzL4gyYbx_RmuDyr-248" edge="1">
          <mxGeometry width="50" height="50" relative="1" as="geometry">
            <mxPoint x="1050" y="290" as="sourcePoint" />
            <mxPoint x="1100" y="240" as="targetPoint" />
          </mxGeometry>
        </mxCell>
        <mxCell id="po9PtzL4gyYbx_RmuDyr-259" value="&lt;u&gt;cardNum&lt;/u&gt;" style="ellipse;whiteSpace=wrap;html=1;align=center;dashed=0;strokeColor=default;strokeWidth=1;verticalAlign=middle;spacingLeft=6;spacingTop=0;fontFamily=Helvetica;fontSize=12;fontColor=default;labelBackgroundColor=default;fillColor=default;" parent="1" vertex="1">
          <mxGeometry x="1090" y="100" width="80" height="40" as="geometry" />
        </mxCell>
        <mxCell id="po9PtzL4gyYbx_RmuDyr-261" value="exporyDate" style="ellipse;whiteSpace=wrap;html=1;align=center;dashed=0;strokeColor=default;strokeWidth=1;verticalAlign=middle;spacingLeft=6;spacingTop=0;fontFamily=Helvetica;fontSize=12;fontColor=default;labelBackgroundColor=default;fillColor=default;" parent="1" vertex="1">
          <mxGeometry x="1240" y="271.88" width="80" height="40" as="geometry" />
        </mxCell>
        <mxCell id="po9PtzL4gyYbx_RmuDyr-262" value="CVV" style="ellipse;whiteSpace=wrap;html=1;align=center;dashed=0;strokeColor=default;strokeWidth=1;verticalAlign=middle;spacingLeft=6;spacingTop=0;fontFamily=Helvetica;fontSize=12;fontColor=default;labelBackgroundColor=default;fillColor=default;" parent="1" vertex="1">
          <mxGeometry x="1110" y="271.88" width="80" height="40" as="geometry" />
        </mxCell>
        <mxCell id="po9PtzL4gyYbx_RmuDyr-263" value="" style="endArrow=none;html=1;rounded=0;strokeColor=default;align=center;verticalAlign=middle;fontFamily=Helvetica;fontSize=12;fontColor=default;labelBackgroundColor=default;endSize=3.668421052631579;fillColor=#000000;entryX=0.25;entryY=0;entryDx=0;entryDy=0;exitX=0.5;exitY=1;exitDx=0;exitDy=0;" parent="1" source="po9PtzL4gyYbx_RmuDyr-259" target="po9PtzL4gyYbx_RmuDyr-248" edge="1">
          <mxGeometry width="50" height="50" relative="1" as="geometry">
            <mxPoint x="1100" y="200" as="sourcePoint" />
            <mxPoint x="1150" y="150" as="targetPoint" />
          </mxGeometry>
        </mxCell>
        <mxCell id="po9PtzL4gyYbx_RmuDyr-265" value="" style="endArrow=none;html=1;rounded=0;strokeColor=default;align=center;verticalAlign=middle;fontFamily=Helvetica;fontSize=12;fontColor=default;labelBackgroundColor=default;endSize=3.668421052631579;fillColor=#000000;entryX=0.25;entryY=1;entryDx=0;entryDy=0;exitX=0.5;exitY=0;exitDx=0;exitDy=0;" parent="1" source="po9PtzL4gyYbx_RmuDyr-262" target="po9PtzL4gyYbx_RmuDyr-248" edge="1">
          <mxGeometry width="50" height="50" relative="1" as="geometry">
            <mxPoint x="1080" y="280" as="sourcePoint" />
            <mxPoint x="1130" y="230" as="targetPoint" />
          </mxGeometry>
        </mxCell>
        <mxCell id="po9PtzL4gyYbx_RmuDyr-266" value="" style="endArrow=none;html=1;rounded=0;strokeColor=default;align=center;verticalAlign=middle;fontFamily=Helvetica;fontSize=12;fontColor=default;labelBackgroundColor=default;endSize=3.668421052631579;fillColor=#000000;entryX=0.75;entryY=1;entryDx=0;entryDy=0;exitX=0.5;exitY=0;exitDx=0;exitDy=0;" parent="1" source="po9PtzL4gyYbx_RmuDyr-261" target="po9PtzL4gyYbx_RmuDyr-248" edge="1">
          <mxGeometry width="50" height="50" relative="1" as="geometry">
            <mxPoint x="1210" y="310" as="sourcePoint" />
            <mxPoint x="1260" y="260" as="targetPoint" />
          </mxGeometry>
        </mxCell>
        <mxCell id="po9PtzL4gyYbx_RmuDyr-267" value="price" style="ellipse;whiteSpace=wrap;html=1;align=center;dashed=0;strokeColor=default;strokeWidth=1;verticalAlign=middle;spacingLeft=6;spacingTop=0;fontFamily=Helvetica;fontSize=12;fontColor=default;labelBackgroundColor=default;fillColor=default;" parent="1" vertex="1">
          <mxGeometry x="945" y="110" width="100" height="40" as="geometry" />
        </mxCell>
        <mxCell id="po9PtzL4gyYbx_RmuDyr-268" value="" style="endArrow=none;html=1;rounded=0;strokeColor=default;align=center;verticalAlign=middle;fontFamily=Helvetica;fontSize=12;fontColor=default;labelBackgroundColor=default;endSize=3.668421052631579;fillColor=#000000;entryX=0.5;entryY=1;entryDx=0;entryDy=0;exitX=1;exitY=0;exitDx=0;exitDy=0;" parent="1" source="po9PtzL4gyYbx_RmuDyr-197" target="po9PtzL4gyYbx_RmuDyr-267" edge="1">
          <mxGeometry width="50" height="50" relative="1" as="geometry">
            <mxPoint x="920" y="220" as="sourcePoint" />
            <mxPoint x="970" y="170" as="targetPoint" />
          </mxGeometry>
        </mxCell>
        <mxCell id="6I9uHZwS66kzTQDMLwLf-5" value="&lt;font style=&quot;font-size: 15px;&quot;&gt;For the Person, assuming that one person can not be&amp;nbsp;&lt;/font&gt;&lt;div&gt;&lt;font style=&quot;font-size: 15px;&quot;&gt;Deliver&amp;nbsp;&lt;/font&gt;&lt;span style=&quot;font-size: 15px; background-color: initial;&quot;&gt;and Customer at the same time,&amp;nbsp;&lt;/span&gt;&lt;span style=&quot;font-size: 15px; background-color: initial;&quot;&gt;so using&amp;nbsp;&lt;/span&gt;&lt;/div&gt;&lt;div&gt;&lt;span style=&quot;font-size: 15px; background-color: initial;&quot;&gt;personId as PK.&amp;nbsp;&lt;/span&gt;&lt;font style=&quot;font-size: 15px; background-color: initial;&quot;&gt;Customer and&amp;nbsp;&lt;/font&gt;&lt;span style=&quot;font-size: 15px; background-color: initial;&quot;&gt;Delivery man inherited&amp;nbsp;&lt;/span&gt;&lt;/div&gt;&lt;div&gt;&lt;span style=&quot;font-size: 15px; background-color: initial;&quot;&gt;personId from Person.&lt;/span&gt;&lt;/div&gt;" style="text;html=1;align=left;verticalAlign=middle;resizable=0;points=[];autosize=1;strokeColor=none;fillColor=none;" parent="1" vertex="1">
          <mxGeometry x="1310" y="80" width="390" height="90" as="geometry" />
        </mxCell>
        <mxCell id="6I9uHZwS66kzTQDMLwLf-6" value="&lt;font style=&quot;font-size: 15px;&quot;&gt;The reason for using a weak entity to present reservationDetail is that&amp;nbsp;&lt;/font&gt;&lt;div style=&quot;font-size: 15px;&quot;&gt;&lt;font style=&quot;font-size: 15px;&quot;&gt;the relation between Table and reservationDetail is 1-to-many,&amp;nbsp;&lt;/font&gt;&lt;/div&gt;&lt;div style=&quot;font-size: 15px;&quot;&gt;&lt;font style=&quot;font-size: 15px;&quot;&gt;and reservationDetail can&#39;t exist without a table.&lt;/font&gt;&lt;/div&gt;" style="text;html=1;align=left;verticalAlign=middle;resizable=0;points=[];autosize=1;strokeColor=none;fillColor=none;" parent="1" vertex="1">
          <mxGeometry x="7.5" y="1015" width="490" height="70" as="geometry" />
        </mxCell>
        <mxCell id="6I9uHZwS66kzTQDMLwLf-7" value="&lt;font style=&quot;font-size: 15px;&quot;&gt;OrderDetail is an entity of presents the items in the order,&lt;/font&gt;&lt;div style=&quot;font-size: 15px;&quot;&gt;&lt;font style=&quot;font-size: 15px;&quot;&gt;using orderId as the foreign key, oDetial_Id as the primary key&lt;/font&gt;&lt;/div&gt;&lt;div style=&quot;font-size: 15px;&quot;&gt;&lt;font style=&quot;font-size: 15px;&quot;&gt;. Including the quantity of&amp;nbsp;&lt;span style=&quot;background-color: initial;&quot;&gt;the food. The relation between&amp;nbsp;&lt;/span&gt;&lt;/font&gt;&lt;/div&gt;&lt;div style=&quot;font-size: 15px;&quot;&gt;&lt;span style=&quot;background-color: initial;&quot;&gt;&lt;font style=&quot;font-size: 15px;&quot;&gt;OrderDetail and Order is many-to-1.&lt;/font&gt;&lt;/span&gt;&lt;/div&gt;" style="text;html=1;align=left;verticalAlign=middle;resizable=0;points=[];autosize=1;strokeColor=none;fillColor=none;" parent="1" vertex="1">
          <mxGeometry x="505" y="20" width="440" height="90" as="geometry" />
        </mxCell>
        <mxCell id="6I9uHZwS66kzTQDMLwLf-8" value="&lt;font style=&quot;font-size: 15px;&quot;&gt;&lt;font style=&quot;font-size: 15px;&quot;&gt;To customize the coffee order, setting the entity CoffeeOrder&lt;/font&gt;&lt;/font&gt;&lt;div&gt;&lt;font style=&quot;font-size: 15px;&quot;&gt;&lt;font style=&quot;font-size: 15px;&quot;&gt;&amp;nbsp;as a weak entity&lt;/font&gt;&lt;span style=&quot;background-color: initial;&quot;&gt;.&amp;nbsp;&amp;nbsp;&lt;/span&gt;&lt;/font&gt;&lt;span style=&quot;font-size: 15px; background-color: initial;&quot;&gt;The reason is that a coffee order relies on&lt;/span&gt;&lt;/div&gt;&lt;div&gt;&lt;span style=&quot;font-size: 15px; background-color: initial;&quot;&gt;&amp;nbsp;an OrderDetail which has ordered&amp;nbsp;&lt;/span&gt;&lt;span style=&quot;font-size: 15px; background-color: initial;&quot;&gt;a cup of coffee, and it does not&amp;nbsp;&lt;/span&gt;&lt;/div&gt;&lt;div&gt;&lt;span style=&quot;font-size: 15px; background-color: initial;&quot;&gt;need a primary key. In the meantime, one coffer&amp;nbsp;&lt;/span&gt;&lt;div style=&quot;font-size: 15px;&quot;&gt;&lt;font style=&quot;font-size: 15px;&quot;&gt;order corresponds to exactly one orderDetail.&lt;br&gt;&lt;/font&gt;&lt;div style=&quot;&quot;&gt;&lt;div&gt;&lt;br&gt;&lt;/div&gt;&lt;/div&gt;&lt;/div&gt;&lt;/div&gt;" style="text;html=1;align=left;verticalAlign=middle;resizable=0;points=[];autosize=1;strokeColor=none;fillColor=none;" parent="1" vertex="1">
          <mxGeometry x="15" y="10" width="470" height="120" as="geometry" />
        </mxCell>
        <mxCell id="6I9uHZwS66kzTQDMLwLf-9" value="" style="shape=flexArrow;endArrow=classic;html=1;rounded=0;" parent="1" source="6I9uHZwS66kzTQDMLwLf-7" edge="1">
          <mxGeometry width="50" height="50" relative="1" as="geometry">
            <mxPoint x="600" y="160" as="sourcePoint" />
            <mxPoint x="560" y="230" as="targetPoint" />
          </mxGeometry>
        </mxCell>
        <mxCell id="6I9uHZwS66kzTQDMLwLf-10" value="Come_free" style="shape=rhombus;perimeter=rhombusPerimeter;whiteSpace=wrap;html=1;align=center;" parent="1" vertex="1">
          <mxGeometry x="220" y="636.87" width="120" height="60" as="geometry" />
        </mxCell>
        <mxCell id="6I9uHZwS66kzTQDMLwLf-12" value="" style="endArrow=none;html=1;rounded=0;strokeColor=default;align=center;verticalAlign=middle;fontFamily=Helvetica;fontSize=12;fontColor=default;labelBackgroundColor=default;endSize=3.668421052631579;fillColor=#000000;entryX=0.5;entryY=1;entryDx=0;entryDy=0;exitX=0.5;exitY=0;exitDx=0;exitDy=0;" parent="1" source="po9PtzL4gyYbx_RmuDyr-44" target="6I9uHZwS66kzTQDMLwLf-10" edge="1">
          <mxGeometry width="50" height="50" relative="1" as="geometry">
            <mxPoint x="160" y="740" as="sourcePoint" />
            <mxPoint x="230" y="677" as="targetPoint" />
          </mxGeometry>
        </mxCell>
        <mxCell id="6I9uHZwS66kzTQDMLwLf-14" value="&lt;font style=&quot;font-size: 15px;&quot;&gt;Settingthe relation between Menu and Free_items as many-to-many,&amp;nbsp;&lt;/font&gt;&lt;div style=&quot;font-size: 15px;&quot;&gt;&lt;font style=&quot;font-size: 15px;&quot;&gt;because an ordered food could have some choices of free items and&amp;nbsp;&lt;/font&gt;&lt;/div&gt;&lt;div style=&quot;font-size: 15px;&quot;&gt;&lt;font style=&quot;font-size: 15px;&quot;&gt;the free items could also correspond to different ordered food.&amp;nbsp;&lt;/font&gt;&lt;/div&gt;" style="text;html=1;align=left;verticalAlign=middle;resizable=0;points=[];autosize=1;strokeColor=none;fillColor=none;" parent="1" vertex="1">
          <mxGeometry x="7.5" y="930" width="480" height="70" as="geometry" />
        </mxCell>
        <mxCell id="6I9uHZwS66kzTQDMLwLf-15" value="&lt;font style=&quot;font-size: 15px;&quot;&gt;One delivered order corresponds to a delivery man, but one delivery man may hold&amp;nbsp;&lt;/font&gt;&lt;div&gt;&lt;font style=&quot;font-size: 15px;&quot;&gt;several orders&amp;nbsp;&lt;/font&gt;&lt;span style=&quot;font-size: 15px; background-color: initial;&quot;&gt;at the same time. So setting the relation as many-to-1.&amp;nbsp;&lt;/span&gt;&lt;/div&gt;&lt;div&gt;&lt;span style=&quot;font-size: 15px; background-color: initial;&quot;&gt;Using the delivery man&#39;s personId as the foreign key.&amp;nbsp;&lt;/span&gt;&lt;div style=&quot;font-size: 15px;&quot;&gt;Without limitation of suburbs, in order to fit the requirement of assignment.&lt;/div&gt;&lt;/div&gt;" style="text;html=1;align=left;verticalAlign=middle;resizable=0;points=[];autosize=1;strokeColor=none;fillColor=none;" parent="1" vertex="1">
          <mxGeometry x="1090" y="830" width="580" height="90" as="geometry" />
        </mxCell>
        <mxCell id="6I9uHZwS66kzTQDMLwLf-16" value="&lt;font style=&quot;font-size: 15px;&quot;&gt;The order should have a payment, so setting the relation between Payment and Order&amp;nbsp;&lt;/font&gt;&lt;div style=&quot;font-size: 15px;&quot;&gt;&lt;font style=&quot;font-size: 15px;&quot;&gt;as exactly one.&lt;/font&gt;&lt;/div&gt;" style="text;html=1;align=left;verticalAlign=middle;resizable=0;points=[];autosize=1;strokeColor=none;fillColor=none;" parent="1" vertex="1">
          <mxGeometry x="995" y="30" width="600" height="50" as="geometry" />
        </mxCell>
        <mxCell id="6I9uHZwS66kzTQDMLwLf-17" value="" style="shape=flexArrow;endArrow=classic;html=1;rounded=0;" parent="1" edge="1">
          <mxGeometry width="50" height="50" relative="1" as="geometry">
            <mxPoint x="990" y="70" as="sourcePoint" />
            <mxPoint x="910" y="130" as="targetPoint" />
          </mxGeometry>
        </mxCell>
        <mxCell id="6I9uHZwS66kzTQDMLwLf-18" value="&lt;font style=&quot;font-size: 15px;&quot;&gt;Order:&lt;/font&gt;&lt;div&gt;&lt;font style=&quot;font-size: 15px;&quot;&gt;Setting Order as the parent of Dine_inOrder, TakeoutOrder and DeliveredOrder. These three&amp;nbsp;&lt;/font&gt;&lt;/div&gt;&lt;div&gt;&lt;font style=&quot;font-size: 15px;&quot;&gt;children entities inherit orderId as their primary key.&amp;nbsp;&lt;/font&gt;&lt;/div&gt;&lt;div&gt;&lt;font style=&quot;font-size: 15px;&quot;&gt;And for the relation between Dine_inOrder and Table, setting it as&amp;nbsp; many-to-1, because Dine_inorder&lt;/font&gt;&lt;/div&gt;&lt;div&gt;&lt;font style=&quot;font-size: 15px;&quot;&gt;&amp;nbsp;should have a reservation which means it should take a period of a table. One table could correspond&lt;/font&gt;&lt;/div&gt;&lt;div&gt;&lt;font style=&quot;font-size: 15px;&quot;&gt;to several Dine_inOrders at different times.&lt;/font&gt;&lt;/div&gt;" style="text;html=1;align=left;verticalAlign=middle;resizable=0;points=[];autosize=1;strokeColor=none;fillColor=none;" parent="1" vertex="1">
          <mxGeometry x="1000" y="975" width="700" height="120" as="geometry" />
        </mxCell>
        <mxCell id="6I9uHZwS66kzTQDMLwLf-20" value="&lt;font style=&quot;font-size: 15px;&quot;&gt;The justify of the Order is at the right bottom.&lt;/font&gt;" style="shape=note;size=12;whiteSpace=wrap;html=1;" parent="1" vertex="1">
          <mxGeometry x="587.5" y="323.12" width="115" height="74" as="geometry" />
        </mxCell>
        <mxCell id="H4lZpNgvOIqqtPZvh9XI-1" value="" style="endArrow=classic;html=1;rounded=0;exitX=0.5;exitY=0;exitDx=0;exitDy=0;entryX=0.5;entryY=1;entryDx=0;entryDy=0;" parent="1" source="po9PtzL4gyYbx_RmuDyr-121" target="po9PtzL4gyYbx_RmuDyr-122" edge="1">
          <mxGeometry width="50" height="50" relative="1" as="geometry">
            <mxPoint x="689.64" y="870.0000000000002" as="sourcePoint" />
            <mxPoint x="760.3506781186547" y="870" as="targetPoint" />
          </mxGeometry>
        </mxCell>
        <mxCell id="H4lZpNgvOIqqtPZvh9XI-3" value="" style="endArrow=none;html=1;rounded=0;entryX=0.5;entryY=1;entryDx=0;entryDy=0;exitX=0.5;exitY=0;exitDx=0;exitDy=0;strokeWidth=7;" parent="1" source="po9PtzL4gyYbx_RmuDyr-115" target="po9PtzL4gyYbx_RmuDyr-69" edge="1">
          <mxGeometry width="50" height="50" relative="1" as="geometry">
            <mxPoint x="540" y="650" as="sourcePoint" />
            <mxPoint x="590" y="600" as="targetPoint" />
          </mxGeometry>
        </mxCell>
        <mxCell id="H4lZpNgvOIqqtPZvh9XI-4" value="" style="group" parent="1" vertex="1" connectable="0">
          <mxGeometry x="742.5" y="90" width="80" height="40" as="geometry" />
        </mxCell>
        <mxCell id="H4lZpNgvOIqqtPZvh9XI-5" value="cardNum" style="ellipse;whiteSpace=wrap;html=1;align=center;dashed=0;strokeColor=default;strokeWidth=1;verticalAlign=middle;spacingLeft=6;spacingTop=0;fontFamily=Helvetica;fontSize=12;fontColor=default;labelBackgroundColor=default;fillColor=default;" parent="H4lZpNgvOIqqtPZvh9XI-4" vertex="1">
          <mxGeometry width="80" height="40" as="geometry" />
        </mxCell>
        <mxCell id="H4lZpNgvOIqqtPZvh9XI-6" value="" style="endArrow=none;dashed=1;html=1;rounded=0;" parent="H4lZpNgvOIqqtPZvh9XI-4" edge="1">
          <mxGeometry width="50" height="50" relative="1" as="geometry">
            <mxPoint x="17.5" y="31" as="sourcePoint" />
            <mxPoint x="70" y="31.319999999999993" as="targetPoint" />
          </mxGeometry>
        </mxCell>
        <mxCell id="H4lZpNgvOIqqtPZvh9XI-7" value="" style="endArrow=none;html=1;rounded=0;entryX=0.594;entryY=0.972;entryDx=0;entryDy=0;entryPerimeter=0;" parent="1" target="H4lZpNgvOIqqtPZvh9XI-5" edge="1">
          <mxGeometry width="50" height="50" relative="1" as="geometry">
            <mxPoint x="846" y="182" as="sourcePoint" />
            <mxPoint x="820" y="150" as="targetPoint" />
          </mxGeometry>
        </mxCell>
        <mxCell id="H4lZpNgvOIqqtPZvh9XI-8" value="" style="endArrow=none;html=1;rounded=0;entryX=0.5;entryY=1;entryDx=0;entryDy=0;exitX=0.5;exitY=0;exitDx=0;exitDy=0;strokeWidth=7;" parent="1" source="6I9uHZwS66kzTQDMLwLf-10" target="po9PtzL4gyYbx_RmuDyr-1" edge="1">
          <mxGeometry width="50" height="50" relative="1" as="geometry">
            <mxPoint x="290" y="573" as="sourcePoint" />
            <mxPoint x="260" y="528" as="targetPoint" />
          </mxGeometry>
        </mxCell>
        <mxCell id="H4lZpNgvOIqqtPZvh9XI-9" value="&lt;span style=&quot;background-color: rgb(255, 255, 255);&quot;&gt;CoffeeOrder&lt;/span&gt;" style="shape=ext;margin=3;double=1;whiteSpace=wrap;html=1;align=center;" parent="1" vertex="1">
          <mxGeometry x="180" y="215" width="100" height="40" as="geometry" />
        </mxCell>
        <mxCell id="H4lZpNgvOIqqtPZvh9XI-10" value="&lt;u&gt;oDertial_Id&lt;/u&gt;" style="ellipse;whiteSpace=wrap;html=1;align=center;dashed=0;strokeColor=default;strokeWidth=1;verticalAlign=middle;spacingLeft=6;spacingTop=0;fontFamily=Helvetica;fontSize=12;fontColor=default;labelBackgroundColor=default;fillColor=default;" parent="1" vertex="1">
          <mxGeometry x="80" y="170" width="70" height="40" as="geometry" />
        </mxCell>
        <mxCell id="H4lZpNgvOIqqtPZvh9XI-11" value="" style="endArrow=none;dashed=1;html=1;rounded=0;" parent="1" edge="1">
          <mxGeometry width="50" height="50" relative="1" as="geometry">
            <mxPoint x="85" y="201.26" as="sourcePoint" />
            <mxPoint x="145" y="201.38" as="targetPoint" />
          </mxGeometry>
        </mxCell>
        <mxCell id="H4lZpNgvOIqqtPZvh9XI-12" value="" style="endArrow=none;html=1;rounded=0;entryX=0.714;entryY=0.916;entryDx=0;entryDy=0;entryPerimeter=0;exitX=0;exitY=0.5;exitDx=0;exitDy=0;" parent="1" source="H4lZpNgvOIqqtPZvh9XI-9" target="H4lZpNgvOIqqtPZvh9XI-10" edge="1">
          <mxGeometry width="50" height="50" relative="1" as="geometry">
            <mxPoint x="40" y="290" as="sourcePoint" />
            <mxPoint x="90" y="240" as="targetPoint" />
          </mxGeometry>
        </mxCell>
        <mxCell id="H4lZpNgvOIqqtPZvh9XI-17" value="orderId" style="ellipse;whiteSpace=wrap;html=1;align=center;dashed=0;strokeColor=default;strokeWidth=1;verticalAlign=middle;spacingLeft=6;spacingTop=0;fontFamily=Helvetica;fontSize=12;fontColor=default;labelBackgroundColor=default;fillColor=default;" parent="1" vertex="1">
          <mxGeometry x="702.5" y="715" width="80" height="40" as="geometry" />
        </mxCell>
        <mxCell id="H4lZpNgvOIqqtPZvh9XI-18" value="" style="endArrow=none;dashed=1;html=1;rounded=0;" parent="1" edge="1">
          <mxGeometry width="50" height="50" relative="1" as="geometry">
            <mxPoint x="717.5" y="744.38" as="sourcePoint" />
            <mxPoint x="777.5" y="744.38" as="targetPoint" />
          </mxGeometry>
        </mxCell>
        <mxCell id="H4lZpNgvOIqqtPZvh9XI-19" value="" style="endArrow=none;html=1;rounded=0;entryX=0.25;entryY=0.947;entryDx=0;entryDy=0;entryPerimeter=0;exitX=1;exitY=0.5;exitDx=0;exitDy=0;" parent="1" source="po9PtzL4gyYbx_RmuDyr-112" target="H4lZpNgvOIqqtPZvh9XI-17" edge="1">
          <mxGeometry width="50" height="50" relative="1" as="geometry">
            <mxPoint x="680" y="830" as="sourcePoint" />
            <mxPoint x="730" y="780" as="targetPoint" />
          </mxGeometry>
        </mxCell>
        <mxCell id="H4lZpNgvOIqqtPZvh9XI-20" value="DeliverId(personId)" style="ellipse;whiteSpace=wrap;html=1;align=center;dashed=0;strokeColor=default;strokeWidth=1;verticalAlign=middle;spacingLeft=6;spacingTop=0;fontFamily=Helvetica;fontSize=12;fontColor=default;labelBackgroundColor=default;fillColor=default;" parent="1" vertex="1">
          <mxGeometry x="1098" y="790" width="110" height="40" as="geometry" />
        </mxCell>
        <mxCell id="H4lZpNgvOIqqtPZvh9XI-21" value="" style="endArrow=none;html=1;rounded=0;exitX=0;exitY=0;exitDx=0;exitDy=0;" parent="1" source="H4lZpNgvOIqqtPZvh9XI-20" edge="1">
          <mxGeometry width="50" height="50" relative="1" as="geometry">
            <mxPoint x="1070" y="810" as="sourcePoint" />
            <mxPoint x="1040" y="810" as="targetPoint" />
          </mxGeometry>
        </mxCell>
        <mxCell id="H4lZpNgvOIqqtPZvh9XI-22" value="customerId(personId)" style="ellipse;whiteSpace=wrap;html=1;align=center;dashed=0;strokeColor=default;strokeWidth=1;verticalAlign=middle;spacingLeft=6;spacingTop=0;fontFamily=Helvetica;fontSize=12;fontColor=default;labelBackgroundColor=default;fillColor=default;" parent="1" vertex="1">
          <mxGeometry x="971.75" y="325.94" width="132.5" height="40" as="geometry" />
        </mxCell>
        <mxCell id="H4lZpNgvOIqqtPZvh9XI-23" value="" style="endArrow=none;html=1;rounded=0;entryX=0;entryY=0.5;entryDx=0;entryDy=0;exitX=1;exitY=0.5;exitDx=0;exitDy=0;" parent="1" source="po9PtzL4gyYbx_RmuDyr-60" target="H4lZpNgvOIqqtPZvh9XI-22" edge="1">
          <mxGeometry width="50" height="50" relative="1" as="geometry">
            <mxPoint x="950" y="520" as="sourcePoint" />
            <mxPoint x="1000" y="470" as="targetPoint" />
          </mxGeometry>
        </mxCell>
        <mxCell id="H4lZpNgvOIqqtPZvh9XI-24" value="f_Name" style="ellipse;whiteSpace=wrap;html=1;align=center;dashed=0;strokeColor=default;strokeWidth=1;verticalAlign=middle;spacingLeft=6;spacingTop=0;fontFamily=Helvetica;fontSize=12;fontColor=default;labelBackgroundColor=default;fillColor=default;" parent="1" vertex="1">
          <mxGeometry x="1160" y="70" width="80" height="40" as="geometry" />
        </mxCell>
        <mxCell id="H4lZpNgvOIqqtPZvh9XI-25" value="l_Name" style="ellipse;whiteSpace=wrap;html=1;align=center;dashed=0;strokeColor=default;strokeWidth=1;verticalAlign=middle;spacingLeft=6;spacingTop=0;fontFamily=Helvetica;fontSize=12;fontColor=default;labelBackgroundColor=default;fillColor=default;" parent="1" vertex="1">
          <mxGeometry x="1230" y="115" width="80" height="40" as="geometry" />
        </mxCell>
        <mxCell id="H4lZpNgvOIqqtPZvh9XI-26" value="" style="endArrow=none;html=1;rounded=0;strokeColor=default;align=center;verticalAlign=middle;fontFamily=Helvetica;fontSize=12;fontColor=default;labelBackgroundColor=default;endSize=3.668421052631579;fillColor=#000000;entryX=0;entryY=1;entryDx=0;entryDy=0;exitX=0.5;exitY=0;exitDx=0;exitDy=0;" parent="1" source="po9PtzL4gyYbx_RmuDyr-248" target="H4lZpNgvOIqqtPZvh9XI-24" edge="1">
          <mxGeometry width="50" height="50" relative="1" as="geometry">
            <mxPoint x="1220" y="170" as="sourcePoint" />
            <mxPoint x="1260" y="130" as="targetPoint" />
          </mxGeometry>
        </mxCell>
        <mxCell id="H4lZpNgvOIqqtPZvh9XI-27" value="" style="endArrow=none;html=1;rounded=0;strokeColor=default;align=center;verticalAlign=middle;fontFamily=Helvetica;fontSize=12;fontColor=default;labelBackgroundColor=default;endSize=3.668421052631579;fillColor=#000000;entryX=0;entryY=0.5;entryDx=0;entryDy=0;exitX=0.5;exitY=0;exitDx=0;exitDy=0;" parent="1" source="po9PtzL4gyYbx_RmuDyr-248" target="H4lZpNgvOIqqtPZvh9XI-25" edge="1">
          <mxGeometry width="50" height="50" relative="1" as="geometry">
            <mxPoint x="1220" y="169" as="sourcePoint" />
            <mxPoint x="1220" y="230" as="targetPoint" />
          </mxGeometry>
        </mxCell>
        <mxCell id="H4lZpNgvOIqqtPZvh9XI-28" value="&lt;font style=&quot;font-size: 14px;&quot;&gt;In fact, the DeliverId of DeliveredOrder is personId of&amp;nbsp;&lt;/font&gt;&lt;div style=&quot;font-size: 14px;&quot;&gt;&lt;font style=&quot;font-size: 14px;&quot;&gt;delivery man. In order to make a distinction with&amp;nbsp;&lt;/font&gt;&lt;/div&gt;&lt;div style=&quot;font-size: 14px;&quot;&gt;&lt;font style=&quot;font-size: 14px;&quot;&gt;the personId of customer, so setting their personId as&amp;nbsp;&lt;/font&gt;&lt;/div&gt;&lt;div style=&quot;font-size: 14px;&quot;&gt;&lt;font style=&quot;font-size: 14px;&quot;&gt;DeliverId and customerId respectively.&lt;/font&gt;&lt;/div&gt;" style="text;html=1;align=left;verticalAlign=middle;resizable=0;points=[];autosize=1;strokeColor=none;fillColor=none;" parent="1" vertex="1">
          <mxGeometry x="1350" y="450" width="360" height="80" as="geometry" />
        </mxCell>
        <mxCell id="H4lZpNgvOIqqtPZvh9XI-29" value="paymentId" style="ellipse;whiteSpace=wrap;html=1;align=center;dashed=0;strokeColor=default;strokeWidth=1;verticalAlign=middle;spacingLeft=6;spacingTop=0;fontFamily=Helvetica;fontSize=12;fontColor=default;labelBackgroundColor=default;fillColor=default;" parent="1" vertex="1">
          <mxGeometry x="702.5" y="376.26" width="100" height="40" as="geometry" />
        </mxCell>
        <mxCell id="H4lZpNgvOIqqtPZvh9XI-30" value="" style="endArrow=none;html=1;rounded=0;entryX=0.25;entryY=1;entryDx=0;entryDy=0;exitX=1;exitY=0;exitDx=0;exitDy=0;" parent="1" source="H4lZpNgvOIqqtPZvh9XI-29" target="po9PtzL4gyYbx_RmuDyr-60" edge="1">
          <mxGeometry width="50" height="50" relative="1" as="geometry">
            <mxPoint x="710" y="380" as="sourcePoint" />
            <mxPoint x="760" y="330" as="targetPoint" />
          </mxGeometry>
        </mxCell>
        <mxCell id="H4lZpNgvOIqqtPZvh9XI-31" value="" style="endArrow=none;dashed=1;html=1;rounded=0;" parent="1" edge="1">
          <mxGeometry width="50" height="50" relative="1" as="geometry">
            <mxPoint x="712.5" y="404.54" as="sourcePoint" />
            <mxPoint x="792.5" y="404.54" as="targetPoint" />
          </mxGeometry>
        </mxCell>
        <mxCell id="QAXCNz_UcVIkU087QJ_g-1" value="" style="endArrow=none;dashed=1;html=1;rounded=0;" parent="1" edge="1">
          <mxGeometry width="50" height="50" relative="1" as="geometry">
            <mxPoint x="980" y="352.5" as="sourcePoint" />
            <mxPoint x="1070" y="352.5" as="targetPoint" />
          </mxGeometry>
        </mxCell>
        <mxCell id="QAXCNz_UcVIkU087QJ_g-2" value="" style="endArrow=none;dashed=1;html=1;rounded=0;" parent="1" edge="1">
          <mxGeometry width="50" height="50" relative="1" as="geometry">
            <mxPoint x="1110" y="815" as="sourcePoint" />
            <mxPoint x="1180" y="815" as="targetPoint" />
          </mxGeometry>
        </mxCell>
        <mxCell id="QAXCNz_UcVIkU087QJ_g-3" value="" style="endArrow=none;html=1;rounded=0;entryX=0;entryY=0.5;entryDx=0;entryDy=0;exitX=1;exitY=0.5;exitDx=0;exitDy=0;" parent="1" source="QAXCNz_UcVIkU087QJ_g-4" target="po9PtzL4gyYbx_RmuDyr-121" edge="1">
          <mxGeometry width="50" height="50" relative="1" as="geometry">
            <mxPoint x="530" y="920" as="sourcePoint" />
            <mxPoint x="560" y="910" as="targetPoint" />
          </mxGeometry>
        </mxCell>
        <mxCell id="QAXCNz_UcVIkU087QJ_g-4" value="tableId" style="ellipse;whiteSpace=wrap;html=1;align=center;dashed=0;strokeColor=default;strokeWidth=1;verticalAlign=middle;spacingLeft=6;spacingTop=0;fontFamily=Helvetica;fontSize=12;fontColor=default;labelBackgroundColor=default;fillColor=default;" parent="1" vertex="1">
          <mxGeometry x="467.5" y="905" width="80" height="40" as="geometry" />
        </mxCell>
        <mxCell id="QAXCNz_UcVIkU087QJ_g-5" value="" style="endArrow=none;dashed=1;html=1;rounded=0;" parent="1" edge="1">
          <mxGeometry width="50" height="50" relative="1" as="geometry">
            <mxPoint x="487.5" y="930" as="sourcePoint" />
            <mxPoint x="535" y="930" as="targetPoint" />
          </mxGeometry>
        </mxCell>
        <mxCell id="2qwqJVfjHTGKbwgG91GD-1" value="r_state" style="ellipse;whiteSpace=wrap;html=1;align=center;dashed=0;strokeColor=default;strokeWidth=1;verticalAlign=middle;spacingLeft=6;spacingTop=0;fontFamily=Helvetica;fontSize=12;fontColor=default;labelBackgroundColor=default;fillColor=default;" vertex="1" parent="1">
          <mxGeometry x="707.5" y="905" width="80" height="40" as="geometry" />
        </mxCell>
        <mxCell id="2qwqJVfjHTGKbwgG91GD-2" value="" style="endArrow=none;html=1;rounded=0;entryX=0;entryY=0.5;entryDx=0;entryDy=0;exitX=1;exitY=0.5;exitDx=0;exitDy=0;" edge="1" parent="1" source="po9PtzL4gyYbx_RmuDyr-121" target="2qwqJVfjHTGKbwgG91GD-1">
          <mxGeometry width="50" height="50" relative="1" as="geometry">
            <mxPoint x="710" y="880" as="sourcePoint" />
            <mxPoint x="760" y="830" as="targetPoint" />
          </mxGeometry>
        </mxCell>
        <mxCell id="2qwqJVfjHTGKbwgG91GD-3" value="" style="shape=flexArrow;endArrow=classic;html=1;rounded=0;entryX=0.5;entryY=1;entryDx=0;entryDy=0;" edge="1" parent="1" source="2qwqJVfjHTGKbwgG91GD-4" target="2qwqJVfjHTGKbwgG91GD-1">
          <mxGeometry width="50" height="50" relative="1" as="geometry">
            <mxPoint x="780" y="1020" as="sourcePoint" />
            <mxPoint x="810" y="980" as="targetPoint" />
          </mxGeometry>
        </mxCell>
        <mxCell id="2qwqJVfjHTGKbwgG91GD-4" value="&lt;font style=&quot;font-size: 15px;&quot;&gt;r_state represents that if this time of the table has been reserved,&amp;nbsp;&lt;/font&gt;&lt;div style=&quot;font-size: 15px;&quot;&gt;&lt;font style=&quot;font-size: 15px;&quot;&gt;when the system needs the availability of the table, it should check&amp;nbsp;&lt;/font&gt;&lt;/div&gt;&lt;div style=&quot;font-size: 15px;&quot;&gt;&lt;font style=&quot;font-size: 15px;&quot;&gt;the reservation of that time.&lt;/font&gt;&lt;/div&gt;" style="text;html=1;align=left;verticalAlign=middle;resizable=0;points=[];autosize=1;strokeColor=none;fillColor=none;" vertex="1" parent="1">
          <mxGeometry x="497.5" y="1015" width="470" height="70" as="geometry" />
        </mxCell>
      </root>
    </mxGraphModel>
  </diagram>
</mxfile>
